ISO-10303-21;
HEADER;
/* Generated by software containing ST-Developer
 * from STEP Tools, Inc. (www.steptools.com) 
 */
/* OPTION: using custom renumber hook */

FILE_DESCRIPTION(
/* description */ ('STEP AP242 Edition 2',
'CAx-IF Rec.Pracs.---Representation and Presentation of Product Manufa
cturing Information (PMI)---4.0---2014-10-13',
'CAx-IF Rec.Pracs.---3D Tessellated Geometry---0.4---2014-09-14','2;1',
'CAx-IF Rec.Pracs.---User Defined Attributes---1.5---2016-08-15'),
/* implementation_level */ '2;1');

FILE_NAME(
/* name */ 'Part Studio 1 - Part 1',
/* time_stamp */ '2026-10-06T05:17:13Z',
/* author */ (''),
/* organization */ (''),
/* preprocessor_version */ 'ST-DEVELOPER v20',
/* originating_system */ 'ONSHAPE BY PTC INC, 1.221',
/* authorisation */ '  ');

FILE_SCHEMA (('AP242_MANAGED_MODEL_BASED_3D_ENGINEERING_MIM_LF { 1 0 10303 442 3 1 4 }'));
ENDSEC;

DATA;
#10=SHAPE_REPRESENTATION_RELATIONSHIP('','',#426,#11);
#11=ADVANCED_BREP_SHAPE_REPRESENTATION('',(#424),#719);
#12=ELLIPSE('',#449,0.00395847414073779,0.003);
#13=B_SPLINE_CURVE_WITH_KNOTS('',3,(#629,#630,#631,#632,#633,#634,#635),
 .UNSPECIFIED.,.F.,.F.,(4,1,1,1,4),(0.,0.00322094237515595,0.00644188475031191,
0.00966282712546786,0.0128837695006238),.UNSPECIFIED.);
#14=CYLINDRICAL_SURFACE('',#432,0.0403173664916307);
#15=CYLINDRICAL_SURFACE('',#438,0.003);
#16=CYLINDRICAL_SURFACE('',#443,0.002);
#17=CYLINDRICAL_SURFACE('',#448,0.003);
#18=CYLINDRICAL_SURFACE('',#454,0.002);
#19=CYLINDRICAL_SURFACE('',#463,0.00499242616539262);
#20=CYLINDRICAL_SURFACE('',#465,0.005);
#21=CYLINDRICAL_SURFACE('',#470,0.00820832611206853);
#22=CIRCLE('',#430,0.00820832611206853);
#23=CIRCLE('',#433,0.0403173664916307);
#24=CIRCLE('',#434,0.0403173664916307);
#25=CIRCLE('',#435,0.0403173664916307);
#26=CIRCLE('',#437,0.003);
#27=CIRCLE('',#439,0.003);
#28=CIRCLE('',#440,0.003);
#29=CIRCLE('',#442,0.002);
#30=CIRCLE('',#444,0.002);
#31=CIRCLE('',#450,0.003);
#32=CIRCLE('',#451,0.003);
#33=CIRCLE('',#453,0.002);
#34=CIRCLE('',#455,0.002);
#35=CIRCLE('',#458,0.00499242616539262);
#36=CIRCLE('',#459,0.005);
#37=CIRCLE('',#461,0.005);
#38=CIRCLE('',#462,0.00499242616539262);
#39=ORIENTED_EDGE('',*,*,#147,.F.);
#40=ORIENTED_EDGE('',*,*,#148,.T.);
#41=ORIENTED_EDGE('',*,*,#149,.T.);
#42=ORIENTED_EDGE('',*,*,#150,.T.);
#43=ORIENTED_EDGE('',*,*,#151,.T.);
#44=ORIENTED_EDGE('',*,*,#152,.F.);
#45=ORIENTED_EDGE('',*,*,#153,.T.);
#46=ORIENTED_EDGE('',*,*,#154,.T.);
#47=ORIENTED_EDGE('',*,*,#155,.T.);
#48=ORIENTED_EDGE('',*,*,#156,.F.);
#49=ORIENTED_EDGE('',*,*,#157,.F.);
#50=ORIENTED_EDGE('',*,*,#148,.F.);
#51=ORIENTED_EDGE('',*,*,#158,.T.);
#52=ORIENTED_EDGE('',*,*,#151,.F.);
#53=ORIENTED_EDGE('',*,*,#159,.F.);
#54=ORIENTED_EDGE('',*,*,#160,.F.);
#55=ORIENTED_EDGE('',*,*,#150,.F.);
#56=ORIENTED_EDGE('',*,*,#161,.F.);
#57=ORIENTED_EDGE('',*,*,#162,.F.);
#58=ORIENTED_EDGE('',*,*,#163,.T.);
#59=ORIENTED_EDGE('',*,*,#164,.F.);
#60=ORIENTED_EDGE('',*,*,#165,.F.);
#61=ORIENTED_EDGE('',*,*,#166,.F.);
#62=ORIENTED_EDGE('',*,*,#167,.T.);
#63=ORIENTED_EDGE('',*,*,#168,.F.);
#64=ORIENTED_EDGE('',*,*,#169,.F.);
#65=ORIENTED_EDGE('',*,*,#170,.F.);
#66=ORIENTED_EDGE('',*,*,#169,.T.);
#67=ORIENTED_EDGE('',*,*,#171,.T.);
#68=ORIENTED_EDGE('',*,*,#172,.T.);
#69=ORIENTED_EDGE('',*,*,#173,.T.);
#70=ORIENTED_EDGE('',*,*,#174,.F.);
#71=ORIENTED_EDGE('',*,*,#170,.T.);
#72=ORIENTED_EDGE('',*,*,#175,.F.);
#73=ORIENTED_EDGE('',*,*,#174,.T.);
#74=ORIENTED_EDGE('',*,*,#175,.T.);
#75=ORIENTED_EDGE('',*,*,#176,.T.);
#76=ORIENTED_EDGE('',*,*,#177,.F.);
#77=ORIENTED_EDGE('',*,*,#171,.F.);
#78=ORIENTED_EDGE('',*,*,#168,.T.);
#79=ORIENTED_EDGE('',*,*,#178,.F.);
#80=ORIENTED_EDGE('',*,*,#173,.F.);
#81=ORIENTED_EDGE('',*,*,#179,.F.);
#82=ORIENTED_EDGE('',*,*,#180,.F.);
#83=ORIENTED_EDGE('',*,*,#181,.T.);
#84=ORIENTED_EDGE('',*,*,#166,.T.);
#85=ORIENTED_EDGE('',*,*,#182,.F.);
#86=ORIENTED_EDGE('',*,*,#180,.T.);
#87=ORIENTED_EDGE('',*,*,#183,.T.);
#88=ORIENTED_EDGE('',*,*,#176,.F.);
#89=ORIENTED_EDGE('',*,*,#184,.F.);
#90=ORIENTED_EDGE('',*,*,#185,.F.);
#91=ORIENTED_EDGE('',*,*,#184,.T.);
#92=ORIENTED_EDGE('',*,*,#186,.F.);
#93=ORIENTED_EDGE('',*,*,#185,.T.);
#94=ORIENTED_EDGE('',*,*,#186,.T.);
#95=ORIENTED_EDGE('',*,*,#164,.T.);
#96=ORIENTED_EDGE('',*,*,#187,.T.);
#97=ORIENTED_EDGE('',*,*,#154,.F.);
#98=ORIENTED_EDGE('',*,*,#188,.F.);
#99=ORIENTED_EDGE('',*,*,#189,.T.);
#100=ORIENTED_EDGE('',*,*,#190,.F.);
#101=ORIENTED_EDGE('',*,*,#191,.F.);
#102=ORIENTED_EDGE('',*,*,#172,.F.);
#103=ORIENTED_EDGE('',*,*,#177,.T.);
#104=ORIENTED_EDGE('',*,*,#183,.F.);
#105=ORIENTED_EDGE('',*,*,#179,.T.);
#106=ORIENTED_EDGE('',*,*,#152,.T.);
#107=ORIENTED_EDGE('',*,*,#158,.F.);
#108=ORIENTED_EDGE('',*,*,#147,.T.);
#109=ORIENTED_EDGE('',*,*,#160,.T.);
#110=ORIENTED_EDGE('',*,*,#192,.T.);
#111=ORIENTED_EDGE('',*,*,#193,.T.);
#112=ORIENTED_EDGE('',*,*,#194,.F.);
#113=ORIENTED_EDGE('',*,*,#195,.T.);
#114=ORIENTED_EDGE('',*,*,#188,.T.);
#115=ORIENTED_EDGE('',*,*,#153,.F.);
#116=ORIENTED_EDGE('',*,*,#195,.F.);
#117=ORIENTED_EDGE('',*,*,#196,.T.);
#118=ORIENTED_EDGE('',*,*,#189,.F.);
#119=ORIENTED_EDGE('',*,*,#196,.F.);
#120=ORIENTED_EDGE('',*,*,#194,.T.);
#121=ORIENTED_EDGE('',*,*,#197,.T.);
#122=ORIENTED_EDGE('',*,*,#190,.T.);
#123=ORIENTED_EDGE('',*,*,#197,.F.);
#124=ORIENTED_EDGE('',*,*,#193,.F.);
#125=ORIENTED_EDGE('',*,*,#198,.T.);
#126=ORIENTED_EDGE('',*,*,#192,.F.);
#127=ORIENTED_EDGE('',*,*,#165,.T.);
#128=ORIENTED_EDGE('',*,*,#191,.T.);
#129=ORIENTED_EDGE('',*,*,#198,.F.);
#130=ORIENTED_EDGE('',*,*,#167,.F.);
#131=ORIENTED_EDGE('',*,*,#181,.F.);
#132=ORIENTED_EDGE('',*,*,#182,.T.);
#133=ORIENTED_EDGE('',*,*,#178,.T.);
#134=ORIENTED_EDGE('',*,*,#156,.T.);
#135=ORIENTED_EDGE('',*,*,#199,.T.);
#136=ORIENTED_EDGE('',*,*,#162,.T.);
#137=ORIENTED_EDGE('',*,*,#200,.T.);
#138=ORIENTED_EDGE('',*,*,#200,.F.);
#139=ORIENTED_EDGE('',*,*,#161,.T.);
#140=ORIENTED_EDGE('',*,*,#149,.F.);
#141=ORIENTED_EDGE('',*,*,#159,.T.);
#142=ORIENTED_EDGE('',*,*,#157,.T.);
#143=ORIENTED_EDGE('',*,*,#155,.F.);
#144=ORIENTED_EDGE('',*,*,#187,.F.);
#145=ORIENTED_EDGE('',*,*,#163,.F.);
#146=ORIENTED_EDGE('',*,*,#199,.F.);
#147=EDGE_CURVE('',#201,#202,#239,.T.);
#148=EDGE_CURVE('',#201,#203,#240,.T.);
#149=EDGE_CURVE('',#203,#204,#241,.T.);
#150=EDGE_CURVE('',#204,#202,#242,.F.);
#151=EDGE_CURVE('',#205,#206,#243,.T.);
#152=EDGE_CURVE('',#207,#206,#244,.T.);
#153=EDGE_CURVE('',#207,#208,#245,.T.);
#154=EDGE_CURVE('',#208,#209,#246,.T.);
#155=EDGE_CURVE('',#209,#210,#22,.T.);
#156=EDGE_CURVE('',#211,#210,#247,.T.);
#157=EDGE_CURVE('',#205,#211,#248,.T.);
#158=EDGE_CURVE('',#201,#206,#249,.T.);
#159=EDGE_CURVE('',#203,#205,#250,.T.);
#160=EDGE_CURVE('',#202,#212,#23,.T.);
#161=EDGE_CURVE('',#213,#204,#24,.F.);
#162=EDGE_CURVE('',#214,#213,#251,.F.);
#163=EDGE_CURVE('',#214,#215,#13,.T.);
#164=EDGE_CURVE('',#216,#215,#25,.F.);
#165=EDGE_CURVE('',#212,#216,#252,.T.);
#166=EDGE_CURVE('',#217,#218,#253,.T.);
#167=EDGE_CURVE('',#217,#219,#254,.T.);
#168=EDGE_CURVE('',#220,#219,#255,.T.);
#169=EDGE_CURVE('',#218,#220,#26,.T.);
#170=EDGE_CURVE('',#221,#221,#27,.T.);
#171=EDGE_CURVE('',#220,#222,#256,.T.);
#172=EDGE_CURVE('',#222,#223,#28,.T.);
#173=EDGE_CURVE('',#223,#218,#257,.F.);
#174=EDGE_CURVE('',#224,#224,#29,.T.);
#175=EDGE_CURVE('',#225,#225,#30,.T.);
#176=EDGE_CURVE('',#226,#227,#258,.T.);
#177=EDGE_CURVE('',#222,#227,#259,.T.);
#178=EDGE_CURVE('',#226,#219,#260,.T.);
#179=EDGE_CURVE('',#228,#223,#261,.T.);
#180=EDGE_CURVE('',#229,#228,#262,.T.);
#181=EDGE_CURVE('',#229,#217,#263,.T.);
#182=EDGE_CURVE('',#229,#226,#12,.T.);
#183=EDGE_CURVE('',#228,#227,#31,.T.);
#184=EDGE_CURVE('',#230,#230,#32,.T.);
#185=EDGE_CURVE('',#231,#231,#33,.T.);
#186=EDGE_CURVE('',#232,#232,#34,.T.);
#187=EDGE_CURVE('',#215,#209,#264,.F.);
#188=EDGE_CURVE('',#233,#208,#35,.T.);
#189=EDGE_CURVE('',#233,#234,#265,.T.);
#190=EDGE_CURVE('',#235,#234,#36,.T.);
#191=EDGE_CURVE('',#216,#235,#266,.T.);
#192=EDGE_CURVE('',#212,#236,#267,.T.);
#193=EDGE_CURVE('',#236,#237,#37,.T.);
#194=EDGE_CURVE('',#238,#237,#268,.T.);
#195=EDGE_CURVE('',#238,#207,#38,.T.);
#196=EDGE_CURVE('',#238,#233,#269,.T.);
#197=EDGE_CURVE('',#237,#234,#270,.T.);
#198=EDGE_CURVE('',#236,#235,#271,.T.);
#199=EDGE_CURVE('',#210,#214,#272,.T.);
#200=EDGE_CURVE('',#213,#211,#273,.T.);
#201=VERTEX_POINT('',#597);
#202=VERTEX_POINT('',#598);
#203=VERTEX_POINT('',#600);
#204=VERTEX_POINT('',#602);
#205=VERTEX_POINT('',#606);
#206=VERTEX_POINT('',#607);
#207=VERTEX_POINT('',#609);
#208=VERTEX_POINT('',#611);
#209=VERTEX_POINT('',#613);
#210=VERTEX_POINT('',#615);
#211=VERTEX_POINT('',#617);
#212=VERTEX_POINT('',#624);
#213=VERTEX_POINT('',#626);
#214=VERTEX_POINT('',#628);
#215=VERTEX_POINT('',#636);
#216=VERTEX_POINT('',#638);
#217=VERTEX_POINT('',#642);
#218=VERTEX_POINT('',#643);
#219=VERTEX_POINT('',#645);
#220=VERTEX_POINT('',#647);
#221=VERTEX_POINT('',#651);
#222=VERTEX_POINT('',#653);
#223=VERTEX_POINT('',#655);
#224=VERTEX_POINT('',#659);
#225=VERTEX_POINT('',#662);
#226=VERTEX_POINT('',#666);
#227=VERTEX_POINT('',#667);
#228=VERTEX_POINT('',#672);
#229=VERTEX_POINT('',#674);
#230=VERTEX_POINT('',#680);
#231=VERTEX_POINT('',#683);
#232=VERTEX_POINT('',#686);
#233=VERTEX_POINT('',#691);
#234=VERTEX_POINT('',#693);
#235=VERTEX_POINT('',#695);
#236=VERTEX_POINT('',#699);
#237=VERTEX_POINT('',#701);
#238=VERTEX_POINT('',#703);
#239=LINE('',#596,#274);
#240=LINE('',#599,#275);
#241=LINE('',#601,#276);
#242=LINE('',#603,#277);
#243=LINE('',#605,#278);
#244=LINE('',#608,#279);
#245=LINE('',#610,#280);
#246=LINE('',#612,#281);
#247=LINE('',#616,#282);
#248=LINE('',#618,#283);
#249=LINE('',#620,#284);
#250=LINE('',#621,#285);
#251=LINE('',#627,#286);
#252=LINE('',#639,#287);
#253=LINE('',#641,#288);
#254=LINE('',#644,#289);
#255=LINE('',#646,#290);
#256=LINE('',#652,#291);
#257=LINE('',#656,#292);
#258=LINE('',#665,#293);
#259=LINE('',#668,#294);
#260=LINE('',#669,#295);
#261=LINE('',#671,#296);
#262=LINE('',#673,#297);
#263=LINE('',#675,#298);
#264=LINE('',#689,#299);
#265=LINE('',#692,#300);
#266=LINE('',#696,#301);
#267=LINE('',#698,#302);
#268=LINE('',#702,#303);
#269=LINE('',#706,#304);
#270=LINE('',#708,#305);
#271=LINE('',#710,#306);
#272=LINE('',#714,#307);
#273=LINE('',#715,#308);
#274=VECTOR('',#475,1.);
#275=VECTOR('',#476,1.);
#276=VECTOR('',#477,1.);
#277=VECTOR('',#478,1.);
#278=VECTOR('',#481,1.);
#279=VECTOR('',#482,1.);
#280=VECTOR('',#483,1.);
#281=VECTOR('',#484,1.);
#282=VECTOR('',#487,1.);
#283=VECTOR('',#488,1.);
#284=VECTOR('',#491,1.);
#285=VECTOR('',#492,1.);
#286=VECTOR('',#499,1.);
#287=VECTOR('',#502,1.);
#288=VECTOR('',#505,1.);
#289=VECTOR('',#506,1.);
#290=VECTOR('',#507,1.);
#291=VECTOR('',#514,1.);
#292=VECTOR('',#517,1.);
#293=VECTOR('',#530,1.);
#294=VECTOR('',#531,1.);
#295=VECTOR('',#532,1.);
#296=VECTOR('',#535,1.);
#297=VECTOR('',#536,1.);
#298=VECTOR('',#537,1.);
#299=VECTOR('',#558,1.);
#300=VECTOR('',#561,1.);
#301=VECTOR('',#564,1.);
#302=VECTOR('',#567,1.);
#303=VECTOR('',#570,1.);
#304=VECTOR('',#575,1.);
#305=VECTOR('',#578,1.);
#306=VECTOR('',#581,1.);
#307=VECTOR('',#588,1.);
#308=VECTOR('',#589,1.);
#309=EDGE_LOOP('',(#39,#40,#41,#42));
#310=EDGE_LOOP('',(#43,#44,#45,#46,#47,#48,#49));
#311=EDGE_LOOP('',(#50,#51,#52,#53));
#312=EDGE_LOOP('',(#54,#55,#56,#57,#58,#59,#60));
#313=EDGE_LOOP('',(#61,#62,#63,#64));
#314=EDGE_LOOP('',(#65));
#315=EDGE_LOOP('',(#66,#67,#68,#69));
#316=EDGE_LOOP('',(#70));
#317=EDGE_LOOP('',(#71));
#318=EDGE_LOOP('',(#72));
#319=EDGE_LOOP('',(#73));
#320=EDGE_LOOP('',(#74));
#321=EDGE_LOOP('',(#75,#76,#77,#78,#79));
#322=EDGE_LOOP('',(#80,#81,#82,#83,#84));
#323=EDGE_LOOP('',(#85,#86,#87,#88));
#324=EDGE_LOOP('',(#89));
#325=EDGE_LOOP('',(#90));
#326=EDGE_LOOP('',(#91));
#327=EDGE_LOOP('',(#92));
#328=EDGE_LOOP('',(#93));
#329=EDGE_LOOP('',(#94));
#330=EDGE_LOOP('',(#95,#96,#97,#98,#99,#100,#101));
#331=EDGE_LOOP('',(#102,#103,#104,#105));
#332=EDGE_LOOP('',(#106,#107,#108,#109,#110,#111,#112,#113));
#333=EDGE_LOOP('',(#114,#115,#116,#117));
#334=EDGE_LOOP('',(#118,#119,#120,#121));
#335=EDGE_LOOP('',(#122,#123,#124,#125));
#336=EDGE_LOOP('',(#126,#127,#128,#129));
#337=EDGE_LOOP('',(#130,#131,#132,#133));
#338=EDGE_LOOP('',(#134,#135,#136,#137));
#339=EDGE_LOOP('',(#138,#139,#140,#141,#142));
#340=EDGE_LOOP('',(#143,#144,#145,#146));
#341=FACE_BOUND('',#309,.T.);
#342=FACE_BOUND('',#310,.T.);
#343=FACE_BOUND('',#311,.T.);
#344=FACE_BOUND('',#312,.T.);
#345=FACE_BOUND('',#313,.T.);
#346=FACE_BOUND('',#314,.T.);
#347=FACE_BOUND('',#315,.T.);
#348=FACE_BOUND('',#316,.T.);
#349=FACE_BOUND('',#317,.T.);
#350=FACE_BOUND('',#318,.T.);
#351=FACE_BOUND('',#319,.T.);
#352=FACE_BOUND('',#320,.T.);
#353=FACE_BOUND('',#321,.T.);
#354=FACE_BOUND('',#322,.T.);
#355=FACE_BOUND('',#323,.T.);
#356=FACE_BOUND('',#324,.T.);
#357=FACE_BOUND('',#325,.T.);
#358=FACE_BOUND('',#326,.T.);
#359=FACE_BOUND('',#327,.T.);
#360=FACE_BOUND('',#328,.T.);
#361=FACE_BOUND('',#329,.T.);
#362=FACE_BOUND('',#330,.T.);
#363=FACE_BOUND('',#331,.T.);
#364=FACE_BOUND('',#332,.T.);
#365=FACE_BOUND('',#333,.T.);
#366=FACE_BOUND('',#334,.T.);
#367=FACE_BOUND('',#335,.T.);
#368=FACE_BOUND('',#336,.T.);
#369=FACE_BOUND('',#337,.T.);
#370=FACE_BOUND('',#338,.T.);
#371=FACE_BOUND('',#339,.T.);
#372=FACE_BOUND('',#340,.T.);
#373=PLANE('',#428);
#374=PLANE('',#429);
#375=PLANE('',#431);
#376=PLANE('',#436);
#377=PLANE('',#441);
#378=PLANE('',#445);
#379=PLANE('',#446);
#380=PLANE('',#447);
#381=PLANE('',#452);
#382=PLANE('',#456);
#383=PLANE('',#457);
#384=PLANE('',#460);
#385=PLANE('',#464);
#386=PLANE('',#466);
#387=PLANE('',#467);
#388=PLANE('',#468);
#389=PLANE('',#469);
#390=ADVANCED_FACE('',(#341),#373,.F.);
#391=ADVANCED_FACE('',(#342),#374,.F.);
#392=ADVANCED_FACE('',(#343),#375,.T.);
#393=ADVANCED_FACE('',(#344),#14,.F.);
#394=ADVANCED_FACE('',(#345),#376,.T.);
#395=ADVANCED_FACE('',(#346,#347),#15,.T.);
#396=ADVANCED_FACE('',(#348,#349),#377,.T.);
#397=ADVANCED_FACE('',(#350,#351),#16,.T.);
#398=ADVANCED_FACE('',(#352),#378,.T.);
#399=ADVANCED_FACE('',(#353),#379,.T.);
#400=ADVANCED_FACE('',(#354),#380,.T.);
#401=ADVANCED_FACE('',(#355,#356),#17,.T.);
#402=ADVANCED_FACE('',(#357,#358),#381,.T.);
#403=ADVANCED_FACE('',(#359,#360),#18,.T.);
#404=ADVANCED_FACE('',(#361),#382,.T.);
#405=ADVANCED_FACE('',(#362,#363),#383,.T.);
#406=ADVANCED_FACE('',(#364),#384,.F.);
#407=ADVANCED_FACE('',(#365),#19,.T.);
#408=ADVANCED_FACE('',(#366),#385,.T.);
#409=ADVANCED_FACE('',(#367),#20,.T.);
#410=ADVANCED_FACE('',(#368),#386,.F.);
#411=ADVANCED_FACE('',(#369),#387,.F.);
#412=ADVANCED_FACE('',(#370),#388,.F.);
#413=ADVANCED_FACE('',(#371),#389,.T.);
#414=ADVANCED_FACE('',(#372),#21,.F.);
#415=CLOSED_SHELL('',(#390,#391,#392,#393,#394,#395,#396,#397,#398,#399,
#400,#401,#402,#403,#404,#405,#406,#407,#408,#409,#410,#411,#412,#413,#414));
#416=STYLED_ITEM('',(#417),#424);
#417=PRESENTATION_STYLE_ASSIGNMENT((#418));
#418=SURFACE_STYLE_USAGE(.BOTH.,#419);
#419=SURFACE_SIDE_STYLE('',(#420));
#420=SURFACE_STYLE_FILL_AREA(#421);
#421=FILL_AREA_STYLE('',(#422));
#422=FILL_AREA_STYLE_COLOUR('',#423);
#423=COLOUR_RGB('',0.615686274509804,0.811764705882353,0.929411764705882);
#424=MANIFOLD_SOLID_BREP('Part 1',#415);
#425=SHAPE_DEFINITION_REPRESENTATION(#724,#426);
#426=SHAPE_REPRESENTATION('Part 1',(#427),#719);
#427=AXIS2_PLACEMENT_3D('',#594,#471,#472);
#428=AXIS2_PLACEMENT_3D('',#595,#473,#474);
#429=AXIS2_PLACEMENT_3D('',#604,#479,#480);
#430=AXIS2_PLACEMENT_3D('',#614,#485,#486);
#431=AXIS2_PLACEMENT_3D('',#619,#489,#490);
#432=AXIS2_PLACEMENT_3D('',#622,#493,#494);
#433=AXIS2_PLACEMENT_3D('',#623,#495,#496);
#434=AXIS2_PLACEMENT_3D('',#625,#497,#498);
#435=AXIS2_PLACEMENT_3D('',#637,#500,#501);
#436=AXIS2_PLACEMENT_3D('',#640,#503,#504);
#437=AXIS2_PLACEMENT_3D('',#648,#508,#509);
#438=AXIS2_PLACEMENT_3D('',#649,#510,#511);
#439=AXIS2_PLACEMENT_3D('',#650,#512,#513);
#440=AXIS2_PLACEMENT_3D('',#654,#515,#516);
#441=AXIS2_PLACEMENT_3D('',#657,#518,#519);
#442=AXIS2_PLACEMENT_3D('',#658,#520,#521);
#443=AXIS2_PLACEMENT_3D('',#660,#522,#523);
#444=AXIS2_PLACEMENT_3D('',#661,#524,#525);
#445=AXIS2_PLACEMENT_3D('',#663,#526,#527);
#446=AXIS2_PLACEMENT_3D('',#664,#528,#529);
#447=AXIS2_PLACEMENT_3D('',#670,#533,#534);
#448=AXIS2_PLACEMENT_3D('',#676,#538,#539);
#449=AXIS2_PLACEMENT_3D('',#677,#540,#541);
#450=AXIS2_PLACEMENT_3D('',#678,#542,#543);
#451=AXIS2_PLACEMENT_3D('',#679,#544,#545);
#452=AXIS2_PLACEMENT_3D('',#681,#546,#547);
#453=AXIS2_PLACEMENT_3D('',#682,#548,#549);
#454=AXIS2_PLACEMENT_3D('',#684,#550,#551);
#455=AXIS2_PLACEMENT_3D('',#685,#552,#553);
#456=AXIS2_PLACEMENT_3D('',#687,#554,#555);
#457=AXIS2_PLACEMENT_3D('',#688,#556,#557);
#458=AXIS2_PLACEMENT_3D('',#690,#559,#560);
#459=AXIS2_PLACEMENT_3D('',#694,#562,#563);
#460=AXIS2_PLACEMENT_3D('',#697,#565,#566);
#461=AXIS2_PLACEMENT_3D('',#700,#568,#569);
#462=AXIS2_PLACEMENT_3D('',#704,#571,#572);
#463=AXIS2_PLACEMENT_3D('',#705,#573,#574);
#464=AXIS2_PLACEMENT_3D('',#707,#576,#577);
#465=AXIS2_PLACEMENT_3D('',#709,#579,#580);
#466=AXIS2_PLACEMENT_3D('',#711,#582,#583);
#467=AXIS2_PLACEMENT_3D('',#712,#584,#585);
#468=AXIS2_PLACEMENT_3D('',#713,#586,#587);
#469=AXIS2_PLACEMENT_3D('',#716,#590,#591);
#470=AXIS2_PLACEMENT_3D('',#717,#592,#593);
#471=DIRECTION('',(0.,0.,1.));
#472=DIRECTION('',(1.,0.,0.));
#473=DIRECTION('',(-1.,-1.7347234759768E-16,0.));
#474=DIRECTION('',(1.7347234759768E-16,-1.,0.));
#475=DIRECTION('',(1.7347234759768E-16,-1.,0.));
#476=DIRECTION('',(0.,0.,1.));
#477=DIRECTION('',(0.,-1.,0.));
#478=DIRECTION('',(0.,0.,1.));
#479=DIRECTION('',(1.,0.,0.));
#480=DIRECTION('',(0.,0.,-1.));
#481=DIRECTION('',(0.,0.,-1.));
#482=DIRECTION('',(0.,1.,0.));
#483=DIRECTION('',(0.,0.,1.));
#484=DIRECTION('',(0.,1.,0.));
#485=DIRECTION('',(1.,0.,0.));
#486=DIRECTION('',(0.,0.,-1.));
#487=DIRECTION('',(0.,0.,-1.));
#488=DIRECTION('',(0.,-1.,0.));
#489=DIRECTION('',(0.,1.,0.));
#490=DIRECTION('',(-1.,0.,0.));
#491=DIRECTION('',(-1.,0.,0.));
#492=DIRECTION('',(-1.,0.,0.));
#493=DIRECTION('',(0.,0.,-1.));
#494=DIRECTION('',(-1.,0.,0.));
#495=DIRECTION('',(0.,0.,1.));
#496=DIRECTION('',(1.,0.,0.));
#497=DIRECTION('',(0.,0.,1.));
#498=DIRECTION('',(1.,0.,0.));
#499=DIRECTION('',(0.,0.,-1.));
#500=DIRECTION('',(0.,0.,1.));
#501=DIRECTION('',(1.,0.,0.));
#502=DIRECTION('',(0.,0.,1.));
#503=DIRECTION('',(0.,0.,1.));
#504=DIRECTION('',(1.,0.,0.));
#505=DIRECTION('',(-1.,-1.26161707343768E-16,0.));
#506=DIRECTION('',(0.,1.,0.));
#507=DIRECTION('',(1.,0.,0.));
#508=DIRECTION('',(0.,0.,1.));
#509=DIRECTION('',(1.,0.,0.));
#510=DIRECTION('',(0.,0.,-1.));
#511=DIRECTION('',(-1.,0.,0.));
#512=DIRECTION('',(0.,0.,1.));
#513=DIRECTION('',(1.,-6.12323399573677E-17,0.));
#514=DIRECTION('',(0.,0.,-1.));
#515=DIRECTION('',(0.,0.,1.));
#516=DIRECTION('',(1.,-6.12323399573677E-17,0.));
#517=DIRECTION('',(0.,0.,-1.));
#518=DIRECTION('',(0.,0.,1.));
#519=DIRECTION('',(1.,0.,0.));
#520=DIRECTION('',(0.,0.,1.));
#521=DIRECTION('',(1.,-6.12323399573676E-17,0.));
#522=DIRECTION('',(0.,0.,-1.));
#523=DIRECTION('',(-1.,0.,0.));
#524=DIRECTION('',(0.,0.,1.));
#525=DIRECTION('',(1.,-6.12323399573676E-17,0.));
#526=DIRECTION('',(0.,0.,1.));
#527=DIRECTION('',(1.,0.,0.));
#528=DIRECTION('',(0.,1.,0.));
#529=DIRECTION('',(0.,0.,1.));
#530=DIRECTION('',(0.,0.,-1.));
#531=DIRECTION('',(1.,0.,0.));
#532=DIRECTION('',(-0.757867777668709,0.,-0.652408178651596));
#533=DIRECTION('',(1.26161707343768E-16,-1.,0.));
#534=DIRECTION('',(1.,1.26161707343768E-16,0.));
#535=DIRECTION('',(-1.,-1.26161707343768E-16,0.));
#536=DIRECTION('',(0.,0.,-1.));
#537=DIRECTION('',(-0.757867777668709,0.,-0.652408178651596));
#538=DIRECTION('',(0.,0.,-1.));
#539=DIRECTION('',(-1.,0.,0.));
#540=DIRECTION('',(0.652408178651596,0.,-0.757867777668709));
#541=DIRECTION('',(-0.757867777668709,0.,-0.652408178651596));
#542=DIRECTION('',(0.,0.,1.));
#543=DIRECTION('',(1.,-6.12323399573677E-17,0.));
#544=DIRECTION('',(0.,0.,1.));
#545=DIRECTION('',(1.,-6.12323399573677E-17,0.));
#546=DIRECTION('',(0.,0.,1.));
#547=DIRECTION('',(1.,0.,0.));
#548=DIRECTION('',(0.,0.,1.));
#549=DIRECTION('',(1.,-6.12323399573676E-17,0.));
#550=DIRECTION('',(0.,0.,-1.));
#551=DIRECTION('',(-1.,0.,0.));
#552=DIRECTION('',(0.,0.,1.));
#553=DIRECTION('',(1.,-6.12323399573676E-17,0.));
#554=DIRECTION('',(0.,0.,1.));
#555=DIRECTION('',(1.,0.,0.));
#556=DIRECTION('',(0.,0.,1.));
#557=DIRECTION('',(1.,0.,0.));
#558=DIRECTION('',(1.,0.,0.));
#559=DIRECTION('',(0.,0.,-1.));
#560=DIRECTION('',(-1.3898841312882E-15,-1.,0.));
#561=DIRECTION('',(0.999999990518517,-0.000137706082464604,0.));
#562=DIRECTION('',(0.,0.,-1.));
#563=DIRECTION('',(0.,1.,0.));
#564=DIRECTION('',(1.,3.11375499470596E-16,0.));
#565=DIRECTION('',(0.,0.,1.));
#566=DIRECTION('',(1.,0.,0.));
#567=DIRECTION('',(1.,3.11375499470596E-16,0.));
#568=DIRECTION('',(0.,0.,-1.));
#569=DIRECTION('',(0.,1.,0.));
#570=DIRECTION('',(0.999999990518517,-0.000137706082464604,0.));
#571=DIRECTION('',(0.,0.,-1.));
#572=DIRECTION('',(-1.3898841312882E-15,-1.,0.));
#573=DIRECTION('',(0.,0.,1.));
#574=DIRECTION('',(1.,0.,0.));
#575=DIRECTION('',(0.,0.,1.));
#576=DIRECTION('',(-0.000137706082464604,-0.999999990518517,0.));
#577=DIRECTION('',(0.999999990518517,-0.000137706082464604,0.));
#578=DIRECTION('',(0.,0.,1.));
#579=DIRECTION('',(0.,0.,1.));
#580=DIRECTION('',(1.,0.,0.));
#581=DIRECTION('',(0.,0.,1.));
#582=DIRECTION('',(3.11375499470596E-16,-1.,0.));
#583=DIRECTION('',(1.,3.11375499470596E-16,0.));
#584=DIRECTION('',(0.652408178651596,0.,-0.757867777668709));
#585=DIRECTION('',(-0.757867777668709,0.,-0.652408178651596));
#586=DIRECTION('',(0.,1.,0.));
#587=DIRECTION('',(-1.,0.,0.));
#588=DIRECTION('',(1.,0.,0.));
#589=DIRECTION('',(-1.,0.,0.));
#590=DIRECTION('',(0.,0.,1.));
#591=DIRECTION('',(1.,0.,0.));
#592=DIRECTION('',(1.,0.,0.));
#593=DIRECTION('',(0.,0.,-1.));
#594=CARTESIAN_POINT('',(0.,0.,0.));
#595=CARTESIAN_POINT('',(-0.019107875978433,0.025,-0.004));
#596=CARTESIAN_POINT('',(-0.019107875978433,0.025,-0.004));
#597=CARTESIAN_POINT('',(-0.019107875978433,0.047,-0.004));
#598=CARTESIAN_POINT('',(-0.019107875978433,0.0453173664916307,-0.004));
#599=CARTESIAN_POINT('',(-0.019107875978433,0.047,-0.002));
#600=CARTESIAN_POINT('',(-0.019107875978433,0.047,0.01));
#601=CARTESIAN_POINT('',(-0.019107875978433,0.047,0.01));
#602=CARTESIAN_POINT('',(-0.019107875978433,0.0453173664916307,0.01));
#603=CARTESIAN_POINT('',(-0.019107875978433,0.0453173664916307,-0.004));
#604=CARTESIAN_POINT('',(-0.037316584118655,0.0225,-0.004));
#605=CARTESIAN_POINT('',(-0.037316584118655,0.047,-0.002));
#606=CARTESIAN_POINT('',(-0.037316584118655,0.047,0.01));
#607=CARTESIAN_POINT('',(-0.037316584118655,0.047,-0.004));
#608=CARTESIAN_POINT('',(-0.037316584118655,0.0225,-0.004));
#609=CARTESIAN_POINT('',(-0.037316584118655,0.,-0.004));
#610=CARTESIAN_POINT('',(-0.037316584118655,0.,-0.004));
#611=CARTESIAN_POINT('',(-0.037316584118655,0.,0.));
#612=CARTESIAN_POINT('',(-0.037316584118655,0.0225,0.));
#613=CARTESIAN_POINT('',(-0.037316584118655,0.0367916738879314,0.));
#614=CARTESIAN_POINT('',(-0.037316584118655,0.0367916738879314,0.00820832611206853));
#615=CARTESIAN_POINT('',(-0.037316584118655,0.045,0.00820832611206853));
#616=CARTESIAN_POINT('',(-0.037316584118655,0.045,-0.002));
#617=CARTESIAN_POINT('',(-0.037316584118655,0.045,0.01));
#618=CARTESIAN_POINT('',(-0.037316584118655,0.047,0.01));
#619=CARTESIAN_POINT('',(-0.028212230048544,0.047,-0.002));
#620=CARTESIAN_POINT('',(-0.028212230048544,0.047,-0.004));
#621=CARTESIAN_POINT('',(-0.028212230048544,0.047,0.01));
#622=CARTESIAN_POINT('',(0.0212094905131977,0.0453173664916307,-0.004));
#623=CARTESIAN_POINT('',(0.0212094905131977,0.0453173664916307,-0.004));
#624=CARTESIAN_POINT('',(0.0212094905131977,0.005,-0.004));
#625=CARTESIAN_POINT('',(0.0212094905131977,0.0453173664916307,0.01));
#626=CARTESIAN_POINT('',(-0.019106626851083,0.045,0.01));
#627=CARTESIAN_POINT('',(-0.019106626851083,0.045,0.));
#628=CARTESIAN_POINT('',(-0.019106626851083,0.045,0.00820832611206853));
#629=CARTESIAN_POINT('',(-0.019106626851083,0.045,0.00820832611206853));
#630=CARTESIAN_POINT('',(-0.019106626851083,0.045,0.00711923524732869));
#631=CARTESIAN_POINT('',(-0.0191066618726828,0.0445680919069781,0.00497392112157117));
#632=CARTESIAN_POINT('',(-0.019047110971647,0.0427275967817964,0.00223059625624603));
#633=CARTESIAN_POINT('',(-0.0187928235856715,0.0399850987558818,0.000417583813099088));
#634=CARTESIAN_POINT('',(-0.0184264080450545,0.0378560342313466,-8.17625022823634E-19));
#635=CARTESIAN_POINT('',(-0.0181961259195863,0.0367916738879314,-8.17625022823634E-19));
#636=CARTESIAN_POINT('',(-0.0181961259195863,0.0367916738879314,0.));
#637=CARTESIAN_POINT('',(0.0212094905131977,0.0453173664916307,0.));
#638=CARTESIAN_POINT('',(0.0212094905131977,0.005,0.));
#639=CARTESIAN_POINT('',(0.0212094905131977,0.005,0.));
#640=CARTESIAN_POINT('',(-0.00482037103595866,0.02,0.0051));
#641=CARTESIAN_POINT('',(-0.00482415795326233,-0.002,0.0051));
#642=CARTESIAN_POINT('',(0.00827070992315413,-0.002,0.0051));
#643=CARTESIAN_POINT('',(-0.0300880899757625,-0.002,0.0051));
#644=CARTESIAN_POINT('',(0.00827070992315413,0.02,0.0051));
#645=CARTESIAN_POINT('',(0.00827070992315413,0.002,0.0051));
#646=CARTESIAN_POINT('',(-0.00482415795326233,0.002,0.0051));
#647=CARTESIAN_POINT('',(-0.0300880899757625,0.002,0.0051));
#648=CARTESIAN_POINT('',(-0.0323241579532624,1.83697019872103E-19,0.0051));
#649=CARTESIAN_POINT('',(-0.0323241579532624,1.83697019872103E-19,0.013));
#650=CARTESIAN_POINT('',(-0.0323241579532624,1.83697019872103E-19,0.013));
#651=CARTESIAN_POINT('',(-0.0293241579532624,-9.62964972193618E-35,0.013));
#652=CARTESIAN_POINT('',(-0.0300880899757625,0.002,0.013));
#653=CARTESIAN_POINT('',(-0.0300880899757625,0.002,0.));
#654=CARTESIAN_POINT('',(-0.0323241579532624,1.83697019872103E-19,0.));
#655=CARTESIAN_POINT('',(-0.0300880899757625,-0.002,0.));
#656=CARTESIAN_POINT('',(-0.0300880899757625,-0.002,0.013));
#657=CARTESIAN_POINT('',(-0.00482415795326233,0.,0.013));
#658=CARTESIAN_POINT('',(-0.0323241579532624,3.06161699786838E-19,0.013));
#659=CARTESIAN_POINT('',(-0.0303241579532623,1.83697019872103E-19,0.013));
#660=CARTESIAN_POINT('',(-0.0323241579532624,3.06161699786838E-19,0.038));
#661=CARTESIAN_POINT('',(-0.0323241579532624,3.06161699786838E-19,0.038));
#662=CARTESIAN_POINT('',(-0.0303241579532623,1.83697019872103E-19,0.038));
#663=CARTESIAN_POINT('',(-0.0323241579532624,0.,0.038));
#664=CARTESIAN_POINT('',(-0.00482415795326233,0.002,0.0051));
#665=CARTESIAN_POINT('',(0.0204397740692379,0.002,0.0051));
#666=CARTESIAN_POINT('',(0.0204397740692379,0.002,0.0155757019751688));
#667=CARTESIAN_POINT('',(0.0204397740692379,0.002,0.));
#668=CARTESIAN_POINT('',(-0.00482415795326233,0.002,0.));
#669=CARTESIAN_POINT('',(0.0131878061753444,0.002,0.00933286740071476));
#670=CARTESIAN_POINT('',(-0.00482415795326233,-0.002,0.0051));
#671=CARTESIAN_POINT('',(-0.00482415795326233,-0.002,0.));
#672=CARTESIAN_POINT('',(0.0204397740692379,-0.002,0.));
#673=CARTESIAN_POINT('',(0.0204397740692379,-0.002,0.0051));
#674=CARTESIAN_POINT('',(0.0204397740692379,-0.002,0.0155757019751688));
#675=CARTESIAN_POINT('',(0.0131878061753444,-0.002,0.00933286740071476));
#676=CARTESIAN_POINT('',(0.0226758420467377,1.83697019872103E-19,0.02));
#677=CARTESIAN_POINT('',(0.0226758420467377,1.83697019872103E-19,0.0175006143141382));
#678=CARTESIAN_POINT('',(0.0226758420467377,1.83697019872103E-19,0.));
#679=CARTESIAN_POINT('',(0.0226758420467377,1.83697019872103E-19,0.02));
#680=CARTESIAN_POINT('',(0.0256758420467376,-9.62964972193618E-35,0.02));
#681=CARTESIAN_POINT('',(-0.00482415795326233,0.,0.02));
#682=CARTESIAN_POINT('',(0.0226758420467377,3.06161699786838E-19,0.02));
#683=CARTESIAN_POINT('',(0.0246758420467377,1.83697019872103E-19,0.02));
#684=CARTESIAN_POINT('',(0.0226758420467377,3.06161699786838E-19,0.038));
#685=CARTESIAN_POINT('',(0.0226758420467377,3.06161699786838E-19,0.038));
#686=CARTESIAN_POINT('',(0.0246758420467377,1.83697019872103E-19,0.038));
#687=CARTESIAN_POINT('',(0.0226758420467377,0.,0.038));
#688=CARTESIAN_POINT('',(-0.00482415795326233,0.,0.));
#689=CARTESIAN_POINT('',(-0.00482415795326233,0.0367916738879314,0.));
#690=CARTESIAN_POINT('',(-0.0323241579532624,-9.96977419418256E-19,0.));
#691=CARTESIAN_POINT('',(-0.0323241579532624,-0.00499242616539262,0.));
#692=CARTESIAN_POINT('',(-0.00482415795326233,-0.00499621308269631,0.));
#693=CARTESIAN_POINT('',(0.0226758420467377,-0.005,0.));
#694=CARTESIAN_POINT('',(0.0226758420467377,0.,0.));
#695=CARTESIAN_POINT('',(0.0226758420467377,0.005,0.));
#696=CARTESIAN_POINT('',(0.00178398303415231,0.005,0.));
#697=CARTESIAN_POINT('',(-0.00482415795326233,0.,-0.004));
#698=CARTESIAN_POINT('',(0.00178398303415231,0.005,-0.004));
#699=CARTESIAN_POINT('',(0.0226758420467377,0.005,-0.004));
#700=CARTESIAN_POINT('',(0.0226758420467377,0.,-0.004));
#701=CARTESIAN_POINT('',(0.0226758420467377,-0.005,-0.004));
#702=CARTESIAN_POINT('',(-0.00482415795326233,-0.00499621308269631,-0.004));
#703=CARTESIAN_POINT('',(-0.0323241579532624,-0.00499242616539262,-0.004));
#704=CARTESIAN_POINT('',(-0.0323241579532624,-9.96977419418256E-19,-0.004));
#705=CARTESIAN_POINT('',(-0.0323241579532624,-9.96977419418256E-19,-0.004));
#706=CARTESIAN_POINT('',(-0.0323241579532624,-0.00499242616539262,-0.004));
#707=CARTESIAN_POINT('',(-0.00482415795326233,-0.00499621308269631,-0.004));
#708=CARTESIAN_POINT('',(0.0226758420467377,-0.005,-0.004));
#709=CARTESIAN_POINT('',(0.0226758420467377,0.,-0.004));
#710=CARTESIAN_POINT('',(0.0226758420467377,0.005,-0.004));
#711=CARTESIAN_POINT('',(0.00178398303415231,0.005,-0.004));
#712=CARTESIAN_POINT('',(0.0131878061753444,-0.002,0.00933286740071476));
#713=CARTESIAN_POINT('',(-0.028212230048544,0.045,-0.002));
#714=CARTESIAN_POINT('',(-0.028212230048544,0.045,0.00820832611206853));
#715=CARTESIAN_POINT('',(-0.028212230048544,0.045,0.01));
#716=CARTESIAN_POINT('',(-0.028212230048544,0.047,0.01));
#717=CARTESIAN_POINT('',(-0.028212230048544,0.0367916738879314,0.00820832611206853));
#718=MECHANICAL_DESIGN_GEOMETRIC_PRESENTATION_REPRESENTATION('',(#416),
#719);
#719=(
GEOMETRIC_REPRESENTATION_CONTEXT(3)
GLOBAL_UNCERTAINTY_ASSIGNED_CONTEXT((#720))
GLOBAL_UNIT_ASSIGNED_CONTEXT((#723,#722,#721))
REPRESENTATION_CONTEXT('Part 1','TOP_LEVEL_ASSEMBLY_PART')
);
#720=UNCERTAINTY_MEASURE_WITH_UNIT(LENGTH_MEASURE(2.E-5),#723,
'DISTANCE_ACCURACY_VALUE','Maximum Tolerance applied to model');
#721=(
NAMED_UNIT(*)
SI_UNIT($,.STERADIAN.)
SOLID_ANGLE_UNIT()
);
#722=(
NAMED_UNIT(*)
PLANE_ANGLE_UNIT()
SI_UNIT($,.RADIAN.)
);
#723=(
LENGTH_UNIT()
NAMED_UNIT(*)
SI_UNIT($,.METRE.)
);
#724=PRODUCT_DEFINITION_SHAPE('','',#725);
#725=PRODUCT_DEFINITION('','',#727,#726);
#726=PRODUCT_DEFINITION_CONTEXT('',#733,'design');
#727=PRODUCT_DEFINITION_FORMATION_WITH_SPECIFIED_SOURCE('','',#729,
 .NOT_KNOWN.);
#728=PRODUCT_RELATED_PRODUCT_CATEGORY('','',(#729));
#729=PRODUCT('Part 1','Part 1','Part 1',(#731));
#730=PRODUCT_CATEGORY('','');
#731=PRODUCT_CONTEXT('',#733,'mechanical');
#732=APPLICATION_PROTOCOL_DEFINITION('international standard',
'ap242_managed_model_based_3d_engineering',2020,#733);
#733=APPLICATION_CONTEXT('managed model based 3d engineering');
ENDSEC;
END-ISO-10303-21;
