ISO-10303-21;
HEADER;
/* Generated by software containing ST-Developer
 * from STEP Tools, Inc. (www.steptools.com) 
 */
/* OPTION: using custom renumber hook */

FILE_DESCRIPTION(
/* description */ ('STEP AP242 Edition 2',
'CAx-IF Rec.Pracs.---Representation and Presentation of Product Manufa
cturing Information (PMI)---4.0---2014-10-13',
'CAx-IF Rec.Pracs.---3D Tessellated Geometry---0.4---2014-09-14','2;1',
'CAx-IF Rec.Pracs.---User Defined Attributes---1.5---2016-08-15'),
/* implementation_level */ '2;1');

FILE_NAME(
/* name */ 'Part Studio 1 - Part 2',
/* time_stamp */ '2026-10-06T05:17:01Z',
/* author */ (''),
/* organization */ (''),
/* preprocessor_version */ 'ST-DEVELOPER v20',
/* originating_system */ 'ONSHAPE BY PTC INC, 1.221',
/* authorisation */ '  ');

FILE_SCHEMA (('AP242_MANAGED_MODEL_BASED_3D_ENGINEERING_MIM_LF { 1 0 10303 442 3 1 4 }'));
ENDSEC;

DATA;
#10=SHAPE_REPRESENTATION_RELATIONSHIP('','',#153,#11);
#11=ADVANCED_BREP_SHAPE_REPRESENTATION('',(#151),#250);
#12=B_SPLINE_CURVE_WITH_KNOTS('',3,(#231,#232,#233,#234,#235,#236,#237),
 .UNSPECIFIED.,.F.,.F.,(4,1,1,1,4),(0.,0.00322112267538559,0.00644224535077117,
0.00966336802615676,0.0128844907015423),.UNSPECIFIED.);
#13=CYLINDRICAL_SURFACE('',#159,0.00820832611206853);
#14=CYLINDRICAL_SURFACE('',#161,0.0403173664916307);
#15=CIRCLE('',#156,0.0403173664916307);
#16=CIRCLE('',#160,0.00820832611206853);
#17=CIRCLE('',#162,0.0403173664916307);
#18=ORIENTED_EDGE('',*,*,#54,.F.);
#19=ORIENTED_EDGE('',*,*,#55,.F.);
#20=ORIENTED_EDGE('',*,*,#56,.T.);
#21=ORIENTED_EDGE('',*,*,#57,.T.);
#22=ORIENTED_EDGE('',*,*,#58,.T.);
#23=ORIENTED_EDGE('',*,*,#59,.T.);
#24=ORIENTED_EDGE('',*,*,#60,.T.);
#25=ORIENTED_EDGE('',*,*,#61,.T.);
#26=ORIENTED_EDGE('',*,*,#54,.T.);
#27=ORIENTED_EDGE('',*,*,#62,.F.);
#28=ORIENTED_EDGE('',*,*,#63,.F.);
#29=ORIENTED_EDGE('',*,*,#56,.F.);
#30=ORIENTED_EDGE('',*,*,#64,.F.);
#31=ORIENTED_EDGE('',*,*,#65,.F.);
#32=ORIENTED_EDGE('',*,*,#60,.F.);
#33=ORIENTED_EDGE('',*,*,#66,.F.);
#34=ORIENTED_EDGE('',*,*,#67,.F.);
#35=ORIENTED_EDGE('',*,*,#68,.F.);
#36=ORIENTED_EDGE('',*,*,#69,.T.);
#37=ORIENTED_EDGE('',*,*,#66,.T.);
#38=ORIENTED_EDGE('',*,*,#59,.F.);
#39=ORIENTED_EDGE('',*,*,#58,.F.);
#40=ORIENTED_EDGE('',*,*,#65,.T.);
#41=ORIENTED_EDGE('',*,*,#70,.T.);
#42=ORIENTED_EDGE('',*,*,#64,.T.);
#43=ORIENTED_EDGE('',*,*,#55,.T.);
#44=ORIENTED_EDGE('',*,*,#61,.F.);
#45=ORIENTED_EDGE('',*,*,#63,.T.);
#46=ORIENTED_EDGE('',*,*,#71,.T.);
#47=ORIENTED_EDGE('',*,*,#68,.T.);
#48=ORIENTED_EDGE('',*,*,#57,.F.);
#49=ORIENTED_EDGE('',*,*,#71,.F.);
#50=ORIENTED_EDGE('',*,*,#62,.T.);
#51=ORIENTED_EDGE('',*,*,#70,.F.);
#52=ORIENTED_EDGE('',*,*,#67,.T.);
#53=ORIENTED_EDGE('',*,*,#69,.F.);
#54=EDGE_CURVE('',#72,#73,#84,.T.);
#55=EDGE_CURVE('',#74,#72,#85,.T.);
#56=EDGE_CURVE('',#74,#75,#86,.T.);
#57=EDGE_CURVE('',#75,#76,#87,.T.);
#58=EDGE_CURVE('',#76,#73,#15,.F.);
#59=EDGE_CURVE('',#73,#77,#88,.F.);
#60=EDGE_CURVE('',#77,#78,#89,.F.);
#61=EDGE_CURVE('',#78,#72,#90,.T.);
#62=EDGE_CURVE('',#79,#80,#91,.T.);
#63=EDGE_CURVE('',#75,#79,#92,.T.);
#64=EDGE_CURVE('',#80,#74,#93,.T.);
#65=EDGE_CURVE('',#78,#81,#16,.T.);
#66=EDGE_CURVE('',#82,#77,#12,.T.);
#67=EDGE_CURVE('',#81,#82,#94,.T.);
#68=EDGE_CURVE('',#83,#76,#95,.F.);
#69=EDGE_CURVE('',#83,#82,#17,.F.);
#70=EDGE_CURVE('',#81,#80,#96,.T.);
#71=EDGE_CURVE('',#79,#83,#97,.T.);
#72=VERTEX_POINT('',#207);
#73=VERTEX_POINT('',#208);
#74=VERTEX_POINT('',#210);
#75=VERTEX_POINT('',#212);
#76=VERTEX_POINT('',#214);
#77=VERTEX_POINT('',#218);
#78=VERTEX_POINT('',#220);
#79=VERTEX_POINT('',#224);
#80=VERTEX_POINT('',#225);
#81=VERTEX_POINT('',#230);
#82=VERTEX_POINT('',#238);
#83=VERTEX_POINT('',#242);
#84=LINE('',#206,#98);
#85=LINE('',#209,#99);
#86=LINE('',#211,#100);
#87=LINE('',#213,#101);
#88=LINE('',#217,#102);
#89=LINE('',#219,#103);
#90=LINE('',#221,#104);
#91=LINE('',#223,#105);
#92=LINE('',#226,#106);
#93=LINE('',#227,#107);
#94=LINE('',#239,#108);
#95=LINE('',#241,#109);
#96=LINE('',#245,#110);
#97=LINE('',#247,#111);
#98=VECTOR('',#170,1.);
#99=VECTOR('',#171,1.);
#100=VECTOR('',#172,1.);
#101=VECTOR('',#173,1.);
#102=VECTOR('',#178,1.);
#103=VECTOR('',#179,1.);
#104=VECTOR('',#180,1.);
#105=VECTOR('',#183,1.);
#106=VECTOR('',#184,1.);
#107=VECTOR('',#185,1.);
#108=VECTOR('',#190,1.);
#109=VECTOR('',#193,1.);
#110=VECTOR('',#198,1.);
#111=VECTOR('',#201,1.);
#112=EDGE_LOOP('',(#18,#19,#20,#21,#22));
#113=EDGE_LOOP('',(#23,#24,#25,#26));
#114=EDGE_LOOP('',(#27,#28,#29,#30));
#115=EDGE_LOOP('',(#31,#32,#33,#34));
#116=EDGE_LOOP('',(#35,#36,#37,#38,#39));
#117=EDGE_LOOP('',(#40,#41,#42,#43,#44));
#118=EDGE_LOOP('',(#45,#46,#47,#48));
#119=EDGE_LOOP('',(#49,#50,#51,#52,#53));
#120=FACE_BOUND('',#112,.T.);
#121=FACE_BOUND('',#113,.T.);
#122=FACE_BOUND('',#114,.T.);
#123=FACE_BOUND('',#115,.T.);
#124=FACE_BOUND('',#116,.T.);
#125=FACE_BOUND('',#117,.T.);
#126=FACE_BOUND('',#118,.T.);
#127=FACE_BOUND('',#119,.T.);
#128=PLANE('',#155);
#129=PLANE('',#157);
#130=PLANE('',#158);
#131=PLANE('',#163);
#132=PLANE('',#164);
#133=PLANE('',#165);
#134=ADVANCED_FACE('',(#120),#128,.T.);
#135=ADVANCED_FACE('',(#121),#129,.F.);
#136=ADVANCED_FACE('',(#122),#130,.T.);
#137=ADVANCED_FACE('',(#123),#13,.F.);
#138=ADVANCED_FACE('',(#124),#14,.F.);
#139=ADVANCED_FACE('',(#125),#131,.F.);
#140=ADVANCED_FACE('',(#126),#132,.F.);
#141=ADVANCED_FACE('',(#127),#133,.F.);
#142=CLOSED_SHELL('',(#134,#135,#136,#137,#138,#139,#140,#141));
#143=STYLED_ITEM('',(#144),#151);
#144=PRESENTATION_STYLE_ASSIGNMENT((#145));
#145=SURFACE_STYLE_USAGE(.BOTH.,#146);
#146=SURFACE_SIDE_STYLE('',(#147));
#147=SURFACE_STYLE_FILL_AREA(#148);
#148=FILL_AREA_STYLE('',(#149));
#149=FILL_AREA_STYLE_COLOUR('',#150);
#150=COLOUR_RGB('',0.615686274509804,0.811764705882353,0.929411764705882);
#151=MANIFOLD_SOLID_BREP('Part 2',#142);
#152=SHAPE_DEFINITION_REPRESENTATION(#255,#153);
#153=SHAPE_REPRESENTATION('Part 2',(#154),#250);
#154=AXIS2_PLACEMENT_3D('',#204,#166,#167);
#155=AXIS2_PLACEMENT_3D('',#205,#168,#169);
#156=AXIS2_PLACEMENT_3D('',#215,#174,#175);
#157=AXIS2_PLACEMENT_3D('',#216,#176,#177);
#158=AXIS2_PLACEMENT_3D('',#222,#181,#182);
#159=AXIS2_PLACEMENT_3D('',#228,#186,#187);
#160=AXIS2_PLACEMENT_3D('',#229,#188,#189);
#161=AXIS2_PLACEMENT_3D('',#240,#191,#192);
#162=AXIS2_PLACEMENT_3D('',#243,#194,#195);
#163=AXIS2_PLACEMENT_3D('',#244,#196,#197);
#164=AXIS2_PLACEMENT_3D('',#246,#199,#200);
#165=AXIS2_PLACEMENT_3D('',#248,#202,#203);
#166=DIRECTION('',(0.,0.,1.));
#167=DIRECTION('',(1.,0.,0.));
#168=DIRECTION('',(-1.90537786933375E-16,0.,-1.));
#169=DIRECTION('',(-1.,0.,1.90537786933375E-16));
#170=DIRECTION('',(1.,0.,-1.90537786933375E-16));
#171=DIRECTION('',(0.,-1.,0.));
#172=DIRECTION('',(1.,0.,-1.90537786933375E-16));
#173=DIRECTION('',(0.,-1.,0.));
#174=DIRECTION('',(-1.90537786933375E-16,0.,-1.));
#175=DIRECTION('',(-1.,0.,1.90537786933375E-16));
#176=DIRECTION('',(0.,1.,0.));
#177=DIRECTION('',(-1.,0.,0.));
#178=DIRECTION('',(0.,0.,-1.));
#179=DIRECTION('',(1.,0.,0.));
#180=DIRECTION('',(0.,0.,-1.));
#181=DIRECTION('',(0.,1.,0.));
#182=DIRECTION('',(-1.,0.,0.));
#183=DIRECTION('',(-1.,0.,0.));
#184=DIRECTION('',(0.,0.,1.));
#185=DIRECTION('',(0.,0.,-1.));
#186=DIRECTION('',(-1.,0.,0.));
#187=DIRECTION('',(0.,0.,1.));
#188=DIRECTION('',(1.,0.,0.));
#189=DIRECTION('',(0.,0.,-1.));
#190=DIRECTION('',(1.,0.,0.));
#191=DIRECTION('',(0.,0.,-1.));
#192=DIRECTION('',(-1.,0.,0.));
#193=DIRECTION('',(0.,0.,1.));
#194=DIRECTION('',(0.,0.,-1.));
#195=DIRECTION('',(-1.,0.,0.));
#196=DIRECTION('',(1.,0.,0.));
#197=DIRECTION('',(0.,0.,-1.));
#198=DIRECTION('',(0.,1.,0.));
#199=DIRECTION('',(-1.,-1.7347234759768E-16,0.));
#200=DIRECTION('',(1.7347234759768E-16,-1.,0.));
#201=DIRECTION('',(1.7347234759768E-16,-1.,0.));
#202=DIRECTION('',(0.,0.,-1.));
#203=DIRECTION('',(1.,0.,0.));
#204=CARTESIAN_POINT('',(0.,0.,0.));
#205=CARTESIAN_POINT('',(-0.028212230048544,0.047,-0.014));
#206=CARTESIAN_POINT('',(-0.028212230048544,0.045,-0.014));
#207=CARTESIAN_POINT('',(-0.037316584118655,0.045,-0.014));
#208=CARTESIAN_POINT('',(-0.019106626851083,0.045,-0.014));
#209=CARTESIAN_POINT('',(-0.037316584118655,0.047,-0.014));
#210=CARTESIAN_POINT('',(-0.037316584118655,0.047,-0.014));
#211=CARTESIAN_POINT('',(-0.028212230048544,0.047,-0.014));
#212=CARTESIAN_POINT('',(-0.019107875978433,0.047,-0.014));
#213=CARTESIAN_POINT('',(-0.019107875978433,0.047,-0.014));
#214=CARTESIAN_POINT('',(-0.019107875978433,0.0453173664916307,-0.014));
#215=CARTESIAN_POINT('',(0.0212094905131977,0.0453173664916307,-0.014));
#216=CARTESIAN_POINT('',(-0.028212230048544,0.045,-0.002));
#217=CARTESIAN_POINT('',(-0.019106626851083,0.045,-0.014));
#218=CARTESIAN_POINT('',(-0.019106626851083,0.045,-0.0122083261120685));
#219=CARTESIAN_POINT('',(-0.037316584118655,0.045,-0.0122083261120685));
#220=CARTESIAN_POINT('',(-0.037316584118655,0.045,-0.0122083261120685));
#221=CARTESIAN_POINT('',(-0.037316584118655,0.045,-0.002));
#222=CARTESIAN_POINT('',(-0.028212230048544,0.047,-0.002));
#223=CARTESIAN_POINT('',(-0.028212230048544,0.047,-0.004));
#224=CARTESIAN_POINT('',(-0.019107875978433,0.047,-0.004));
#225=CARTESIAN_POINT('',(-0.037316584118655,0.047,-0.004));
#226=CARTESIAN_POINT('',(-0.019107875978433,0.047,-0.002));
#227=CARTESIAN_POINT('',(-0.037316584118655,0.047,-0.002));
#228=CARTESIAN_POINT('',(-0.00482415795326233,0.0367916738879314,-0.0122083261120685));
#229=CARTESIAN_POINT('',(-0.037316584118655,0.0367916738879314,-0.0122083261120685));
#230=CARTESIAN_POINT('',(-0.037316584118655,0.0367916738879314,-0.004));
#231=CARTESIAN_POINT('',(-0.0181961259195863,0.0367916738879314,-0.004));
#232=CARTESIAN_POINT('',(-0.0184263748033301,0.0378558805886219,-0.004));
#233=CARTESIAN_POINT('',(-0.0187912602658067,0.0399742861356744,-0.00441361212080043));
#234=CARTESIAN_POINT('',(-0.0190470709116335,0.0427246062825029,-0.00622765438197416));
#235=CARTESIAN_POINT('',(-0.0191065584038669,0.0445640680679657,-0.00896305296293817));
#236=CARTESIAN_POINT('',(-0.019106626851083,0.045,-0.0111192541040726));
#237=CARTESIAN_POINT('',(-0.019106626851083,0.045,-0.0122083261120685));
#238=CARTESIAN_POINT('',(-0.0181961259195863,0.0367916738879314,-0.004));
#239=CARTESIAN_POINT('',(-0.019106626851083,0.0367916738879314,-0.004));
#240=CARTESIAN_POINT('',(0.0212094905131977,0.0453173664916307,-0.004));
#241=CARTESIAN_POINT('',(-0.019107875978433,0.0453173664916307,-0.004));
#242=CARTESIAN_POINT('',(-0.019107875978433,0.0453173664916307,-0.004));
#243=CARTESIAN_POINT('',(0.0212094905131977,0.0453173664916307,-0.004));
#244=CARTESIAN_POINT('',(-0.037316584118655,0.0225,-0.004));
#245=CARTESIAN_POINT('',(-0.037316584118655,0.0225,-0.004));
#246=CARTESIAN_POINT('',(-0.019107875978433,0.025,-0.004));
#247=CARTESIAN_POINT('',(-0.019107875978433,0.025,-0.004));
#248=CARTESIAN_POINT('',(-0.00482037103595865,0.024936289374754,-0.004));
#249=MECHANICAL_DESIGN_GEOMETRIC_PRESENTATION_REPRESENTATION('',(#143),
#250);
#250=(
GEOMETRIC_REPRESENTATION_CONTEXT(3)
GLOBAL_UNCERTAINTY_ASSIGNED_CONTEXT((#251))
GLOBAL_UNIT_ASSIGNED_CONTEXT((#254,#253,#252))
REPRESENTATION_CONTEXT('Part 2','TOP_LEVEL_ASSEMBLY_PART')
);
#251=UNCERTAINTY_MEASURE_WITH_UNIT(LENGTH_MEASURE(2.E-5),#254,
'DISTANCE_ACCURACY_VALUE','Maximum Tolerance applied to model');
#252=(
NAMED_UNIT(*)
SI_UNIT($,.STERADIAN.)
SOLID_ANGLE_UNIT()
);
#253=(
NAMED_UNIT(*)
PLANE_ANGLE_UNIT()
SI_UNIT($,.RADIAN.)
);
#254=(
LENGTH_UNIT()
NAMED_UNIT(*)
SI_UNIT($,.METRE.)
);
#255=PRODUCT_DEFINITION_SHAPE('','',#256);
#256=PRODUCT_DEFINITION('','',#258,#257);
#257=PRODUCT_DEFINITION_CONTEXT('',#264,'design');
#258=PRODUCT_DEFINITION_FORMATION_WITH_SPECIFIED_SOURCE('','',#260,
 .NOT_KNOWN.);
#259=PRODUCT_RELATED_PRODUCT_CATEGORY('','',(#260));
#260=PRODUCT('Part 2','Part 2','Part 2',(#262));
#261=PRODUCT_CATEGORY('','');
#262=PRODUCT_CONTEXT('',#264,'mechanical');
#263=APPLICATION_PROTOCOL_DEFINITION('international standard',
'ap242_managed_model_based_3d_engineering',2020,#264);
#264=APPLICATION_CONTEXT('managed model based 3d engineering');
ENDSEC;
END-ISO-10303-21;
