ISO-10303-21;
HEADER;
/* Generated by software containing ST-Developer
 * from STEP Tools, Inc. (www.steptools.com) 
 */
/* OPTION: using custom renumber hook */

FILE_DESCRIPTION(
/* description */ ('STEP AP242 Edition 2',
'CAx-IF Rec.Pracs.---Representation and Presentation of Product Manufa
cturing Information (PMI)---4.0---2014-10-13',
'CAx-IF Rec.Pracs.---3D Tessellated Geometry---0.4---2014-09-14','2;1',
'CAx-IF Rec.Pracs.---User Defined Attributes---1.5---2016-08-15'),
/* implementation_level */ '2;1');

FILE_NAME(
/* name */ 'Part Studio 2 - Part 1',
/* time_stamp */ '2026-10-05T22:35:19Z',
/* author */ (''),
/* organization */ (''),
/* preprocessor_version */ 'ST-DEVELOPER v20',
/* originating_system */ 'ONSHAPE BY PTC INC, 1.221',
/* authorisation */ '  ');

FILE_SCHEMA (('AP242_MANAGED_MODEL_BASED_3D_ENGINEERING_MIM_LF { 1 0 10303 442 3 1 4 }'));
ENDSEC;

DATA;
#10=SHAPE_REPRESENTATION_RELATIONSHIP('','',#640,#11);
#11=ADVANCED_BREP_SHAPE_REPRESENTATION('',(#638),#1079);
#12=CYLINDRICAL_SURFACE('',#656,0.042);
#13=CYLINDRICAL_SURFACE('',#660,0.00515);
#14=CYLINDRICAL_SURFACE('',#670,0.0365);
#15=CYLINDRICAL_SURFACE('',#673,0.0365);
#16=CYLINDRICAL_SURFACE('',#676,0.0365);
#17=CYLINDRICAL_SURFACE('',#679,0.0365);
#18=CYLINDRICAL_SURFACE('',#682,0.0365);
#19=CYLINDRICAL_SURFACE('',#684,0.00215);
#20=CYLINDRICAL_SURFACE('',#692,0.042);
#21=CYLINDRICAL_SURFACE('',#694,0.0365);
#22=CYLINDRICAL_SURFACE('',#697,0.04);
#23=CYLINDRICAL_SURFACE('',#704,0.00415);
#24=CYLINDRICAL_SURFACE('',#706,0.00515);
#25=LINE('',#903,#73);
#26=LINE('',#908,#74);
#27=LINE('',#912,#75);
#28=LINE('',#916,#76);
#29=LINE('',#920,#77);
#30=LINE('',#924,#78);
#31=LINE('',#928,#79);
#32=LINE('',#932,#80);
#33=LINE('',#936,#81);
#34=LINE('',#940,#82);
#35=LINE('',#944,#83);
#36=LINE('',#948,#84);
#37=LINE('',#957,#85);
#38=LINE('',#960,#86);
#39=LINE('',#961,#87);
#40=LINE('',#965,#88);
#41=LINE('',#966,#89);
#42=LINE('',#970,#90);
#43=LINE('',#971,#91);
#44=LINE('',#975,#92);
#45=LINE('',#976,#93);
#46=LINE('',#980,#94);
#47=LINE('',#981,#95);
#48=LINE('',#985,#96);
#49=LINE('',#986,#97);
#50=LINE('',#990,#98);
#51=LINE('',#994,#99);
#52=LINE('',#996,#100);
#53=LINE('',#998,#101);
#54=LINE('',#1000,#102);
#55=LINE('',#1004,#103);
#56=LINE('',#1006,#104);
#57=LINE('',#1008,#105);
#58=LINE('',#1012,#106);
#59=LINE('',#1014,#107);
#60=LINE('',#1016,#108);
#61=LINE('',#1020,#109);
#62=LINE('',#1022,#110);
#63=LINE('',#1024,#111);
#64=LINE('',#1028,#112);
#65=LINE('',#1030,#113);
#66=LINE('',#1032,#114);
#67=LINE('',#1036,#115);
#68=LINE('',#1043,#116);
#69=LINE('',#1045,#117);
#70=LINE('',#1047,#118);
#71=LINE('',#1049,#119);
#72=LINE('',#1051,#120);
#73=VECTOR('',#717,1.);
#74=VECTOR('',#720,1.);
#75=VECTOR('',#723,1.);
#76=VECTOR('',#726,1.);
#77=VECTOR('',#729,1.);
#78=VECTOR('',#732,1.);
#79=VECTOR('',#735,1.);
#80=VECTOR('',#738,1.);
#81=VECTOR('',#741,1.);
#82=VECTOR('',#744,1.);
#83=VECTOR('',#747,1.);
#84=VECTOR('',#750,1.);
#85=VECTOR('',#761,1.);
#86=VECTOR('',#762,1.);
#87=VECTOR('',#763,1.);
#88=VECTOR('',#768,1.);
#89=VECTOR('',#769,1.);
#90=VECTOR('',#772,1.);
#91=VECTOR('',#773,1.);
#92=VECTOR('',#776,1.);
#93=VECTOR('',#777,1.);
#94=VECTOR('',#780,1.);
#95=VECTOR('',#781,1.);
#96=VECTOR('',#784,1.);
#97=VECTOR('',#785,1.);
#98=VECTOR('',#788,1.);
#99=VECTOR('',#793,1.);
#100=VECTOR('',#794,1.);
#101=VECTOR('',#797,1.);
#102=VECTOR('',#798,1.);
#103=VECTOR('',#803,1.);
#104=VECTOR('',#806,1.);
#105=VECTOR('',#807,1.);
#106=VECTOR('',#812,1.);
#107=VECTOR('',#815,1.);
#108=VECTOR('',#816,1.);
#109=VECTOR('',#821,1.);
#110=VECTOR('',#824,1.);
#111=VECTOR('',#825,1.);
#112=VECTOR('',#830,1.);
#113=VECTOR('',#833,1.);
#114=VECTOR('',#834,1.);
#115=VECTOR('',#839,1.);
#116=VECTOR('',#848,1.);
#117=VECTOR('',#851,1.);
#118=VECTOR('',#854,1.);
#119=VECTOR('',#857,1.);
#120=VECTOR('',#860,1.);
#121=ORIENTED_EDGE('',*,*,#291,.T.);
#122=ORIENTED_EDGE('',*,*,#292,.F.);
#123=ORIENTED_EDGE('',*,*,#293,.T.);
#124=ORIENTED_EDGE('',*,*,#294,.T.);
#125=ORIENTED_EDGE('',*,*,#295,.T.);
#126=ORIENTED_EDGE('',*,*,#296,.F.);
#127=ORIENTED_EDGE('',*,*,#297,.T.);
#128=ORIENTED_EDGE('',*,*,#298,.T.);
#129=ORIENTED_EDGE('',*,*,#299,.T.);
#130=ORIENTED_EDGE('',*,*,#300,.F.);
#131=ORIENTED_EDGE('',*,*,#301,.T.);
#132=ORIENTED_EDGE('',*,*,#302,.T.);
#133=ORIENTED_EDGE('',*,*,#303,.T.);
#134=ORIENTED_EDGE('',*,*,#304,.F.);
#135=ORIENTED_EDGE('',*,*,#305,.T.);
#136=ORIENTED_EDGE('',*,*,#306,.T.);
#137=ORIENTED_EDGE('',*,*,#307,.T.);
#138=ORIENTED_EDGE('',*,*,#308,.F.);
#139=ORIENTED_EDGE('',*,*,#309,.T.);
#140=ORIENTED_EDGE('',*,*,#310,.T.);
#141=ORIENTED_EDGE('',*,*,#311,.T.);
#142=ORIENTED_EDGE('',*,*,#312,.F.);
#143=ORIENTED_EDGE('',*,*,#313,.T.);
#144=ORIENTED_EDGE('',*,*,#314,.T.);
#145=ORIENTED_EDGE('',*,*,#315,.T.);
#146=ORIENTED_EDGE('',*,*,#316,.T.);
#147=ORIENTED_EDGE('',*,*,#317,.F.);
#148=ORIENTED_EDGE('',*,*,#318,.F.);
#149=ORIENTED_EDGE('',*,*,#319,.F.);
#150=ORIENTED_EDGE('',*,*,#312,.T.);
#151=ORIENTED_EDGE('',*,*,#320,.T.);
#152=ORIENTED_EDGE('',*,*,#321,.T.);
#153=ORIENTED_EDGE('',*,*,#322,.F.);
#154=ORIENTED_EDGE('',*,*,#309,.F.);
#155=ORIENTED_EDGE('',*,*,#323,.T.);
#156=ORIENTED_EDGE('',*,*,#324,.F.);
#157=ORIENTED_EDGE('',*,*,#325,.F.);
#158=ORIENTED_EDGE('',*,*,#305,.F.);
#159=ORIENTED_EDGE('',*,*,#326,.T.);
#160=ORIENTED_EDGE('',*,*,#327,.F.);
#161=ORIENTED_EDGE('',*,*,#328,.F.);
#162=ORIENTED_EDGE('',*,*,#301,.F.);
#163=ORIENTED_EDGE('',*,*,#329,.T.);
#164=ORIENTED_EDGE('',*,*,#330,.F.);
#165=ORIENTED_EDGE('',*,*,#331,.F.);
#166=ORIENTED_EDGE('',*,*,#297,.F.);
#167=ORIENTED_EDGE('',*,*,#332,.T.);
#168=ORIENTED_EDGE('',*,*,#333,.F.);
#169=ORIENTED_EDGE('',*,*,#334,.F.);
#170=ORIENTED_EDGE('',*,*,#293,.F.);
#171=ORIENTED_EDGE('',*,*,#335,.T.);
#172=ORIENTED_EDGE('',*,*,#336,.F.);
#173=ORIENTED_EDGE('',*,*,#337,.F.);
#174=ORIENTED_EDGE('',*,*,#313,.F.);
#175=ORIENTED_EDGE('',*,*,#319,.T.);
#176=ORIENTED_EDGE('',*,*,#338,.T.);
#177=ORIENTED_EDGE('',*,*,#339,.T.);
#178=ORIENTED_EDGE('',*,*,#340,.F.);
#179=ORIENTED_EDGE('',*,*,#310,.F.);
#180=ORIENTED_EDGE('',*,*,#322,.T.);
#181=ORIENTED_EDGE('',*,*,#341,.T.);
#182=ORIENTED_EDGE('',*,*,#342,.F.);
#183=ORIENTED_EDGE('',*,*,#302,.F.);
#184=ORIENTED_EDGE('',*,*,#328,.T.);
#185=ORIENTED_EDGE('',*,*,#343,.T.);
#186=ORIENTED_EDGE('',*,*,#344,.F.);
#187=ORIENTED_EDGE('',*,*,#303,.F.);
#188=ORIENTED_EDGE('',*,*,#342,.T.);
#189=ORIENTED_EDGE('',*,*,#345,.T.);
#190=ORIENTED_EDGE('',*,*,#346,.F.);
#191=ORIENTED_EDGE('',*,*,#298,.F.);
#192=ORIENTED_EDGE('',*,*,#331,.T.);
#193=ORIENTED_EDGE('',*,*,#347,.T.);
#194=ORIENTED_EDGE('',*,*,#348,.F.);
#195=ORIENTED_EDGE('',*,*,#299,.F.);
#196=ORIENTED_EDGE('',*,*,#346,.T.);
#197=ORIENTED_EDGE('',*,*,#349,.T.);
#198=ORIENTED_EDGE('',*,*,#350,.F.);
#199=ORIENTED_EDGE('',*,*,#294,.F.);
#200=ORIENTED_EDGE('',*,*,#334,.T.);
#201=ORIENTED_EDGE('',*,*,#351,.T.);
#202=ORIENTED_EDGE('',*,*,#352,.F.);
#203=ORIENTED_EDGE('',*,*,#295,.F.);
#204=ORIENTED_EDGE('',*,*,#350,.T.);
#205=ORIENTED_EDGE('',*,*,#353,.T.);
#206=ORIENTED_EDGE('',*,*,#354,.F.);
#207=ORIENTED_EDGE('',*,*,#314,.F.);
#208=ORIENTED_EDGE('',*,*,#337,.T.);
#209=ORIENTED_EDGE('',*,*,#355,.T.);
#210=ORIENTED_EDGE('',*,*,#356,.F.);
#211=ORIENTED_EDGE('',*,*,#315,.F.);
#212=ORIENTED_EDGE('',*,*,#354,.T.);
#213=ORIENTED_EDGE('',*,*,#357,.T.);
#214=ORIENTED_EDGE('',*,*,#358,.F.);
#215=ORIENTED_EDGE('',*,*,#306,.F.);
#216=ORIENTED_EDGE('',*,*,#325,.T.);
#217=ORIENTED_EDGE('',*,*,#359,.T.);
#218=ORIENTED_EDGE('',*,*,#360,.F.);
#219=ORIENTED_EDGE('',*,*,#307,.F.);
#220=ORIENTED_EDGE('',*,*,#358,.T.);
#221=ORIENTED_EDGE('',*,*,#361,.F.);
#222=ORIENTED_EDGE('',*,*,#362,.T.);
#223=ORIENTED_EDGE('',*,*,#363,.F.);
#224=ORIENTED_EDGE('',*,*,#326,.F.);
#225=ORIENTED_EDGE('',*,*,#304,.T.);
#226=ORIENTED_EDGE('',*,*,#344,.T.);
#227=ORIENTED_EDGE('',*,*,#364,.F.);
#228=ORIENTED_EDGE('',*,*,#329,.F.);
#229=ORIENTED_EDGE('',*,*,#300,.T.);
#230=ORIENTED_EDGE('',*,*,#348,.T.);
#231=ORIENTED_EDGE('',*,*,#365,.F.);
#232=ORIENTED_EDGE('',*,*,#332,.F.);
#233=ORIENTED_EDGE('',*,*,#296,.T.);
#234=ORIENTED_EDGE('',*,*,#352,.T.);
#235=ORIENTED_EDGE('',*,*,#366,.F.);
#236=ORIENTED_EDGE('',*,*,#335,.F.);
#237=ORIENTED_EDGE('',*,*,#292,.T.);
#238=ORIENTED_EDGE('',*,*,#356,.T.);
#239=ORIENTED_EDGE('',*,*,#367,.F.);
#240=ORIENTED_EDGE('',*,*,#323,.F.);
#241=ORIENTED_EDGE('',*,*,#308,.T.);
#242=ORIENTED_EDGE('',*,*,#360,.T.);
#243=ORIENTED_EDGE('',*,*,#368,.T.);
#244=ORIENTED_EDGE('',*,*,#291,.F.);
#245=ORIENTED_EDGE('',*,*,#369,.T.);
#246=ORIENTED_EDGE('',*,*,#320,.F.);
#247=ORIENTED_EDGE('',*,*,#311,.F.);
#248=ORIENTED_EDGE('',*,*,#340,.T.);
#249=ORIENTED_EDGE('',*,*,#316,.F.);
#250=ORIENTED_EDGE('',*,*,#324,.T.);
#251=ORIENTED_EDGE('',*,*,#367,.T.);
#252=ORIENTED_EDGE('',*,*,#359,.F.);
#253=ORIENTED_EDGE('',*,*,#357,.F.);
#254=ORIENTED_EDGE('',*,*,#336,.T.);
#255=ORIENTED_EDGE('',*,*,#366,.T.);
#256=ORIENTED_EDGE('',*,*,#355,.F.);
#257=ORIENTED_EDGE('',*,*,#353,.F.);
#258=ORIENTED_EDGE('',*,*,#333,.T.);
#259=ORIENTED_EDGE('',*,*,#365,.T.);
#260=ORIENTED_EDGE('',*,*,#351,.F.);
#261=ORIENTED_EDGE('',*,*,#349,.F.);
#262=ORIENTED_EDGE('',*,*,#330,.T.);
#263=ORIENTED_EDGE('',*,*,#364,.T.);
#264=ORIENTED_EDGE('',*,*,#347,.F.);
#265=ORIENTED_EDGE('',*,*,#345,.F.);
#266=ORIENTED_EDGE('',*,*,#327,.T.);
#267=ORIENTED_EDGE('',*,*,#363,.T.);
#268=ORIENTED_EDGE('',*,*,#343,.F.);
#269=ORIENTED_EDGE('',*,*,#341,.F.);
#270=ORIENTED_EDGE('',*,*,#361,.T.);
#271=ORIENTED_EDGE('',*,*,#318,.T.);
#272=ORIENTED_EDGE('',*,*,#369,.F.);
#273=ORIENTED_EDGE('',*,*,#339,.F.);
#274=ORIENTED_EDGE('',*,*,#321,.F.);
#275=ORIENTED_EDGE('',*,*,#370,.F.);
#276=ORIENTED_EDGE('',*,*,#371,.T.);
#277=ORIENTED_EDGE('',*,*,#370,.T.);
#278=ORIENTED_EDGE('',*,*,#368,.F.);
#279=ORIENTED_EDGE('',*,*,#371,.F.);
#280=ORIENTED_EDGE('',*,*,#317,.T.);
#281=ORIENTED_EDGE('',*,*,#372,.F.);
#282=ORIENTED_EDGE('',*,*,#338,.F.);
#283=ORIENTED_EDGE('',*,*,#373,.F.);
#284=ORIENTED_EDGE('',*,*,#372,.T.);
#285=ORIENTED_EDGE('',*,*,#374,.F.);
#286=ORIENTED_EDGE('',*,*,#375,.T.);
#287=ORIENTED_EDGE('',*,*,#374,.T.);
#288=ORIENTED_EDGE('',*,*,#362,.F.);
#289=ORIENTED_EDGE('',*,*,#373,.T.);
#290=ORIENTED_EDGE('',*,*,#375,.F.);
#291=EDGE_CURVE('',#376,#376,#437,.T.);
#292=EDGE_CURVE('',#377,#378,#25,.T.);
#293=EDGE_CURVE('',#377,#379,#438,.T.);
#294=EDGE_CURVE('',#379,#380,#26,.T.);
#295=EDGE_CURVE('',#380,#381,#439,.T.);
#296=EDGE_CURVE('',#382,#381,#27,.T.);
#297=EDGE_CURVE('',#382,#383,#440,.T.);
#298=EDGE_CURVE('',#383,#384,#28,.T.);
#299=EDGE_CURVE('',#384,#385,#441,.T.);
#300=EDGE_CURVE('',#386,#385,#29,.T.);
#301=EDGE_CURVE('',#386,#387,#442,.T.);
#302=EDGE_CURVE('',#387,#388,#30,.T.);
#303=EDGE_CURVE('',#388,#389,#443,.T.);
#304=EDGE_CURVE('',#390,#389,#31,.T.);
#305=EDGE_CURVE('',#390,#391,#444,.T.);
#306=EDGE_CURVE('',#391,#392,#32,.T.);
#307=EDGE_CURVE('',#392,#393,#445,.T.);
#308=EDGE_CURVE('',#394,#393,#33,.T.);
#309=EDGE_CURVE('',#394,#395,#446,.T.);
#310=EDGE_CURVE('',#395,#396,#34,.T.);
#311=EDGE_CURVE('',#396,#397,#447,.T.);
#312=EDGE_CURVE('',#398,#397,#35,.T.);
#313=EDGE_CURVE('',#398,#399,#448,.T.);
#314=EDGE_CURVE('',#399,#400,#36,.T.);
#315=EDGE_CURVE('',#400,#378,#449,.T.);
#316=EDGE_CURVE('',#401,#401,#450,.T.);
#317=EDGE_CURVE('',#402,#402,#451,.T.);
#318=EDGE_CURVE('',#403,#404,#37,.T.);
#319=EDGE_CURVE('',#398,#403,#38,.T.);
#320=EDGE_CURVE('',#397,#404,#39,.T.);
#321=EDGE_CURVE('',#403,#405,#452,.T.);
#322=EDGE_CURVE('',#395,#405,#40,.T.);
#323=EDGE_CURVE('',#394,#406,#41,.T.);
#324=EDGE_CURVE('',#407,#406,#453,.T.);
#325=EDGE_CURVE('',#391,#407,#42,.T.);
#326=EDGE_CURVE('',#390,#408,#43,.T.);
#327=EDGE_CURVE('',#409,#408,#454,.T.);
#328=EDGE_CURVE('',#387,#409,#44,.T.);
#329=EDGE_CURVE('',#386,#410,#45,.T.);
#330=EDGE_CURVE('',#411,#410,#455,.T.);
#331=EDGE_CURVE('',#383,#411,#46,.T.);
#332=EDGE_CURVE('',#382,#412,#47,.T.);
#333=EDGE_CURVE('',#413,#412,#456,.T.);
#334=EDGE_CURVE('',#379,#413,#48,.T.);
#335=EDGE_CURVE('',#377,#414,#49,.T.);
#336=EDGE_CURVE('',#415,#414,#457,.T.);
#337=EDGE_CURVE('',#399,#415,#50,.T.);
#338=EDGE_CURVE('',#416,#416,#458,.T.);
#339=EDGE_CURVE('',#405,#417,#51,.T.);
#340=EDGE_CURVE('',#396,#417,#52,.T.);
#341=EDGE_CURVE('',#409,#418,#53,.T.);
#342=EDGE_CURVE('',#388,#418,#54,.T.);
#343=EDGE_CURVE('',#418,#419,#459,.T.);
#344=EDGE_CURVE('',#389,#419,#55,.T.);
#345=EDGE_CURVE('',#411,#420,#56,.T.);
#346=EDGE_CURVE('',#384,#420,#57,.T.);
#347=EDGE_CURVE('',#420,#421,#460,.T.);
#348=EDGE_CURVE('',#385,#421,#58,.T.);
#349=EDGE_CURVE('',#413,#422,#59,.T.);
#350=EDGE_CURVE('',#380,#422,#60,.T.);
#351=EDGE_CURVE('',#422,#423,#461,.T.);
#352=EDGE_CURVE('',#381,#423,#61,.T.);
#353=EDGE_CURVE('',#415,#424,#62,.T.);
#354=EDGE_CURVE('',#400,#424,#63,.T.);
#355=EDGE_CURVE('',#424,#425,#462,.T.);
#356=EDGE_CURVE('',#378,#425,#64,.T.);
#357=EDGE_CURVE('',#407,#426,#65,.T.);
#358=EDGE_CURVE('',#392,#426,#66,.T.);
#359=EDGE_CURVE('',#426,#427,#463,.T.);
#360=EDGE_CURVE('',#393,#427,#67,.T.);
#361=EDGE_CURVE('',#428,#428,#464,.T.);
#362=EDGE_CURVE('',#429,#429,#465,.T.);
#363=EDGE_CURVE('',#408,#419,#68,.T.);
#364=EDGE_CURVE('',#410,#421,#69,.T.);
#365=EDGE_CURVE('',#412,#423,#70,.T.);
#366=EDGE_CURVE('',#414,#425,#71,.T.);
#367=EDGE_CURVE('',#406,#427,#72,.T.);
#368=EDGE_CURVE('',#430,#430,#466,.T.);
#369=EDGE_CURVE('',#417,#404,#467,.T.);
#370=EDGE_CURVE('',#431,#431,#468,.T.);
#371=EDGE_CURVE('',#432,#432,#469,.T.);
#372=EDGE_CURVE('',#433,#433,#470,.T.);
#373=EDGE_CURVE('',#434,#434,#471,.T.);
#374=EDGE_CURVE('',#435,#435,#472,.T.);
#375=EDGE_CURVE('',#436,#436,#473,.T.);
#376=VERTEX_POINT('',#902);
#377=VERTEX_POINT('',#904);
#378=VERTEX_POINT('',#905);
#379=VERTEX_POINT('',#907);
#380=VERTEX_POINT('',#909);
#381=VERTEX_POINT('',#911);
#382=VERTEX_POINT('',#913);
#383=VERTEX_POINT('',#915);
#384=VERTEX_POINT('',#917);
#385=VERTEX_POINT('',#919);
#386=VERTEX_POINT('',#921);
#387=VERTEX_POINT('',#923);
#388=VERTEX_POINT('',#925);
#389=VERTEX_POINT('',#927);
#390=VERTEX_POINT('',#929);
#391=VERTEX_POINT('',#931);
#392=VERTEX_POINT('',#933);
#393=VERTEX_POINT('',#935);
#394=VERTEX_POINT('',#937);
#395=VERTEX_POINT('',#939);
#396=VERTEX_POINT('',#941);
#397=VERTEX_POINT('',#943);
#398=VERTEX_POINT('',#945);
#399=VERTEX_POINT('',#947);
#400=VERTEX_POINT('',#949);
#401=VERTEX_POINT('',#953);
#402=VERTEX_POINT('',#955);
#403=VERTEX_POINT('',#958);
#404=VERTEX_POINT('',#959);
#405=VERTEX_POINT('',#964);
#406=VERTEX_POINT('',#967);
#407=VERTEX_POINT('',#969);
#408=VERTEX_POINT('',#972);
#409=VERTEX_POINT('',#974);
#410=VERTEX_POINT('',#977);
#411=VERTEX_POINT('',#979);
#412=VERTEX_POINT('',#982);
#413=VERTEX_POINT('',#984);
#414=VERTEX_POINT('',#987);
#415=VERTEX_POINT('',#989);
#416=VERTEX_POINT('',#992);
#417=VERTEX_POINT('',#995);
#418=VERTEX_POINT('',#999);
#419=VERTEX_POINT('',#1003);
#420=VERTEX_POINT('',#1007);
#421=VERTEX_POINT('',#1011);
#422=VERTEX_POINT('',#1015);
#423=VERTEX_POINT('',#1019);
#424=VERTEX_POINT('',#1023);
#425=VERTEX_POINT('',#1027);
#426=VERTEX_POINT('',#1031);
#427=VERTEX_POINT('',#1035);
#428=VERTEX_POINT('',#1039);
#429=VERTEX_POINT('',#1041);
#430=VERTEX_POINT('',#1054);
#431=VERTEX_POINT('',#1060);
#432=VERTEX_POINT('',#1062);
#433=VERTEX_POINT('',#1067);
#434=VERTEX_POINT('',#1070);
#435=VERTEX_POINT('',#1073);
#436=VERTEX_POINT('',#1075);
#437=CIRCLE('',#643,0.042);
#438=CIRCLE('',#644,0.00515);
#439=CIRCLE('',#645,0.0365);
#440=CIRCLE('',#646,0.00515);
#441=CIRCLE('',#647,0.0365);
#442=CIRCLE('',#648,0.00515);
#443=CIRCLE('',#649,0.0365);
#444=CIRCLE('',#650,0.00515);
#445=CIRCLE('',#651,0.0365);
#446=CIRCLE('',#652,0.00515);
#447=CIRCLE('',#653,0.0365);
#448=CIRCLE('',#654,0.00515);
#449=CIRCLE('',#655,0.0365);
#450=CIRCLE('',#657,0.042);
#451=CIRCLE('',#658,0.042);
#452=CIRCLE('',#661,0.00515);
#453=CIRCLE('',#662,0.00515);
#454=CIRCLE('',#663,0.00515);
#455=CIRCLE('',#664,0.00515);
#456=CIRCLE('',#665,0.00515);
#457=CIRCLE('',#666,0.00515000000000006);
#458=CIRCLE('',#667,0.00515);
#459=CIRCLE('',#671,0.0365);
#460=CIRCLE('',#674,0.0365);
#461=CIRCLE('',#677,0.0365);
#462=CIRCLE('',#680,0.0365);
#463=CIRCLE('',#683,0.0365);
#464=CIRCLE('',#685,0.00215);
#465=CIRCLE('',#686,0.00215);
#466=CIRCLE('',#693,0.042);
#467=CIRCLE('',#695,0.0365);
#468=CIRCLE('',#698,0.04);
#469=CIRCLE('',#699,0.04);
#470=CIRCLE('',#703,0.00415);
#471=CIRCLE('',#705,0.00415);
#472=CIRCLE('',#707,0.00515);
#473=CIRCLE('',#708,0.00515);
#474=EDGE_LOOP('',(#121));
#475=EDGE_LOOP('',(#122,#123,#124,#125,#126,#127,#128,#129,#130,#131,#132,
#133,#134,#135,#136,#137,#138,#139,#140,#141,#142,#143,#144,#145));
#476=EDGE_LOOP('',(#146));
#477=EDGE_LOOP('',(#147));
#478=EDGE_LOOP('',(#148,#149,#150,#151));
#479=EDGE_LOOP('',(#152,#153,#154,#155,#156,#157,#158,#159,#160,#161,#162,
#163,#164,#165,#166,#167,#168,#169,#170,#171,#172,#173,#174,#175));
#480=EDGE_LOOP('',(#176));
#481=EDGE_LOOP('',(#177,#178,#179,#180));
#482=EDGE_LOOP('',(#181,#182,#183,#184));
#483=EDGE_LOOP('',(#185,#186,#187,#188));
#484=EDGE_LOOP('',(#189,#190,#191,#192));
#485=EDGE_LOOP('',(#193,#194,#195,#196));
#486=EDGE_LOOP('',(#197,#198,#199,#200));
#487=EDGE_LOOP('',(#201,#202,#203,#204));
#488=EDGE_LOOP('',(#205,#206,#207,#208));
#489=EDGE_LOOP('',(#209,#210,#211,#212));
#490=EDGE_LOOP('',(#213,#214,#215,#216));
#491=EDGE_LOOP('',(#217,#218,#219,#220));
#492=EDGE_LOOP('',(#221));
#493=EDGE_LOOP('',(#222));
#494=EDGE_LOOP('',(#223,#224,#225,#226));
#495=EDGE_LOOP('',(#227,#228,#229,#230));
#496=EDGE_LOOP('',(#231,#232,#233,#234));
#497=EDGE_LOOP('',(#235,#236,#237,#238));
#498=EDGE_LOOP('',(#239,#240,#241,#242));
#499=EDGE_LOOP('',(#243));
#500=EDGE_LOOP('',(#244));
#501=EDGE_LOOP('',(#245,#246,#247,#248));
#502=EDGE_LOOP('',(#249));
#503=EDGE_LOOP('',(#250,#251,#252,#253));
#504=EDGE_LOOP('',(#254,#255,#256,#257));
#505=EDGE_LOOP('',(#258,#259,#260,#261));
#506=EDGE_LOOP('',(#262,#263,#264,#265));
#507=EDGE_LOOP('',(#266,#267,#268,#269));
#508=EDGE_LOOP('',(#270));
#509=EDGE_LOOP('',(#271,#272,#273,#274));
#510=EDGE_LOOP('',(#275));
#511=EDGE_LOOP('',(#276));
#512=EDGE_LOOP('',(#277));
#513=EDGE_LOOP('',(#278));
#514=EDGE_LOOP('',(#279));
#515=EDGE_LOOP('',(#280));
#516=EDGE_LOOP('',(#281));
#517=EDGE_LOOP('',(#282));
#518=EDGE_LOOP('',(#283));
#519=EDGE_LOOP('',(#284));
#520=EDGE_LOOP('',(#285));
#521=EDGE_LOOP('',(#286));
#522=EDGE_LOOP('',(#287));
#523=EDGE_LOOP('',(#288));
#524=EDGE_LOOP('',(#289));
#525=EDGE_LOOP('',(#290));
#526=FACE_BOUND('',#474,.T.);
#527=FACE_BOUND('',#475,.T.);
#528=FACE_BOUND('',#476,.T.);
#529=FACE_BOUND('',#477,.T.);
#530=FACE_BOUND('',#478,.T.);
#531=FACE_BOUND('',#479,.T.);
#532=FACE_BOUND('',#480,.T.);
#533=FACE_BOUND('',#481,.T.);
#534=FACE_BOUND('',#482,.T.);
#535=FACE_BOUND('',#483,.T.);
#536=FACE_BOUND('',#484,.T.);
#537=FACE_BOUND('',#485,.T.);
#538=FACE_BOUND('',#486,.T.);
#539=FACE_BOUND('',#487,.T.);
#540=FACE_BOUND('',#488,.T.);
#541=FACE_BOUND('',#489,.T.);
#542=FACE_BOUND('',#490,.T.);
#543=FACE_BOUND('',#491,.T.);
#544=FACE_BOUND('',#492,.T.);
#545=FACE_BOUND('',#493,.T.);
#546=FACE_BOUND('',#494,.T.);
#547=FACE_BOUND('',#495,.T.);
#548=FACE_BOUND('',#496,.T.);
#549=FACE_BOUND('',#497,.T.);
#550=FACE_BOUND('',#498,.T.);
#551=FACE_BOUND('',#499,.T.);
#552=FACE_BOUND('',#500,.T.);
#553=FACE_BOUND('',#501,.T.);
#554=FACE_BOUND('',#502,.T.);
#555=FACE_BOUND('',#503,.T.);
#556=FACE_BOUND('',#504,.T.);
#557=FACE_BOUND('',#505,.T.);
#558=FACE_BOUND('',#506,.T.);
#559=FACE_BOUND('',#507,.T.);
#560=FACE_BOUND('',#508,.T.);
#561=FACE_BOUND('',#509,.T.);
#562=FACE_BOUND('',#510,.T.);
#563=FACE_BOUND('',#511,.T.);
#564=FACE_BOUND('',#512,.T.);
#565=FACE_BOUND('',#513,.T.);
#566=FACE_BOUND('',#514,.T.);
#567=FACE_BOUND('',#515,.T.);
#568=FACE_BOUND('',#516,.T.);
#569=FACE_BOUND('',#517,.T.);
#570=FACE_BOUND('',#518,.T.);
#571=FACE_BOUND('',#519,.T.);
#572=FACE_BOUND('',#520,.T.);
#573=FACE_BOUND('',#521,.T.);
#574=FACE_BOUND('',#522,.T.);
#575=FACE_BOUND('',#523,.T.);
#576=FACE_BOUND('',#524,.T.);
#577=FACE_BOUND('',#525,.T.);
#578=PLANE('',#642);
#579=PLANE('',#659);
#580=PLANE('',#668);
#581=PLANE('',#669);
#582=PLANE('',#672);
#583=PLANE('',#675);
#584=PLANE('',#678);
#585=PLANE('',#681);
#586=PLANE('',#687);
#587=PLANE('',#688);
#588=PLANE('',#689);
#589=PLANE('',#690);
#590=PLANE('',#691);
#591=PLANE('',#696);
#592=PLANE('',#700);
#593=PLANE('',#701);
#594=PLANE('',#702);
#595=PLANE('',#709);
#596=PLANE('',#710);
#597=ADVANCED_FACE('',(#526,#527),#578,.T.);
#598=ADVANCED_FACE('',(#528,#529),#12,.T.);
#599=ADVANCED_FACE('',(#530),#579,.T.);
#600=ADVANCED_FACE('',(#531,#532),#13,.T.);
#601=ADVANCED_FACE('',(#533),#580,.F.);
#602=ADVANCED_FACE('',(#534),#581,.F.);
#603=ADVANCED_FACE('',(#535),#14,.F.);
#604=ADVANCED_FACE('',(#536),#582,.F.);
#605=ADVANCED_FACE('',(#537),#15,.F.);
#606=ADVANCED_FACE('',(#538),#583,.F.);
#607=ADVANCED_FACE('',(#539),#16,.F.);
#608=ADVANCED_FACE('',(#540),#584,.F.);
#609=ADVANCED_FACE('',(#541),#17,.F.);
#610=ADVANCED_FACE('',(#542),#585,.F.);
#611=ADVANCED_FACE('',(#543),#18,.F.);
#612=ADVANCED_FACE('',(#544,#545),#19,.F.);
#613=ADVANCED_FACE('',(#546),#586,.T.);
#614=ADVANCED_FACE('',(#547),#587,.T.);
#615=ADVANCED_FACE('',(#548),#588,.T.);
#616=ADVANCED_FACE('',(#549),#589,.T.);
#617=ADVANCED_FACE('',(#550),#590,.T.);
#618=ADVANCED_FACE('',(#551,#552),#20,.T.);
#619=ADVANCED_FACE('',(#553),#21,.F.);
#620=ADVANCED_FACE('',(#554,#555,#556,#557,#558,#559,#560,#561),#591,.F.);
#621=ADVANCED_FACE('',(#562,#563),#22,.T.);
#622=ADVANCED_FACE('',(#564,#565),#592,.F.);
#623=ADVANCED_FACE('',(#566,#567),#593,.T.);
#624=ADVANCED_FACE('',(#568,#569),#594,.T.);
#625=ADVANCED_FACE('',(#570,#571),#23,.T.);
#626=ADVANCED_FACE('',(#572,#573),#24,.T.);
#627=ADVANCED_FACE('',(#574,#575),#595,.T.);
#628=ADVANCED_FACE('',(#576,#577),#596,.F.);
#629=CLOSED_SHELL('',(#597,#598,#599,#600,#601,#602,#603,#604,#605,#606,
#607,#608,#609,#610,#611,#612,#613,#614,#615,#616,#617,#618,#619,#620,#621,
#622,#623,#624,#625,#626,#627,#628));
#630=STYLED_ITEM('',(#631),#638);
#631=PRESENTATION_STYLE_ASSIGNMENT((#632));
#632=SURFACE_STYLE_USAGE(.BOTH.,#633);
#633=SURFACE_SIDE_STYLE('',(#634));
#634=SURFACE_STYLE_FILL_AREA(#635);
#635=FILL_AREA_STYLE('',(#636));
#636=FILL_AREA_STYLE_COLOUR('',#637);
#637=COLOUR_RGB('',0.615686274509804,0.811764705882353,0.929411764705882);
#638=MANIFOLD_SOLID_BREP('Part 1',#629);
#639=SHAPE_DEFINITION_REPRESENTATION(#1084,#640);
#640=SHAPE_REPRESENTATION('Part 1',(#641),#1079);
#641=AXIS2_PLACEMENT_3D('',#899,#711,#712);
#642=AXIS2_PLACEMENT_3D('',#900,#713,#714);
#643=AXIS2_PLACEMENT_3D('',#901,#715,#716);
#644=AXIS2_PLACEMENT_3D('',#906,#718,#719);
#645=AXIS2_PLACEMENT_3D('',#910,#721,#722);
#646=AXIS2_PLACEMENT_3D('',#914,#724,#725);
#647=AXIS2_PLACEMENT_3D('',#918,#727,#728);
#648=AXIS2_PLACEMENT_3D('',#922,#730,#731);
#649=AXIS2_PLACEMENT_3D('',#926,#733,#734);
#650=AXIS2_PLACEMENT_3D('',#930,#736,#737);
#651=AXIS2_PLACEMENT_3D('',#934,#739,#740);
#652=AXIS2_PLACEMENT_3D('',#938,#742,#743);
#653=AXIS2_PLACEMENT_3D('',#942,#745,#746);
#654=AXIS2_PLACEMENT_3D('',#946,#748,#749);
#655=AXIS2_PLACEMENT_3D('',#950,#751,#752);
#656=AXIS2_PLACEMENT_3D('',#951,#753,#754);
#657=AXIS2_PLACEMENT_3D('',#952,#755,#756);
#658=AXIS2_PLACEMENT_3D('',#954,#757,#758);
#659=AXIS2_PLACEMENT_3D('',#956,#759,#760);
#660=AXIS2_PLACEMENT_3D('',#962,#764,#765);
#661=AXIS2_PLACEMENT_3D('',#963,#766,#767);
#662=AXIS2_PLACEMENT_3D('',#968,#770,#771);
#663=AXIS2_PLACEMENT_3D('',#973,#774,#775);
#664=AXIS2_PLACEMENT_3D('',#978,#778,#779);
#665=AXIS2_PLACEMENT_3D('',#983,#782,#783);
#666=AXIS2_PLACEMENT_3D('',#988,#786,#787);
#667=AXIS2_PLACEMENT_3D('',#991,#789,#790);
#668=AXIS2_PLACEMENT_3D('',#993,#791,#792);
#669=AXIS2_PLACEMENT_3D('',#997,#795,#796);
#670=AXIS2_PLACEMENT_3D('',#1001,#799,#800);
#671=AXIS2_PLACEMENT_3D('',#1002,#801,#802);
#672=AXIS2_PLACEMENT_3D('',#1005,#804,#805);
#673=AXIS2_PLACEMENT_3D('',#1009,#808,#809);
#674=AXIS2_PLACEMENT_3D('',#1010,#810,#811);
#675=AXIS2_PLACEMENT_3D('',#1013,#813,#814);
#676=AXIS2_PLACEMENT_3D('',#1017,#817,#818);
#677=AXIS2_PLACEMENT_3D('',#1018,#819,#820);
#678=AXIS2_PLACEMENT_3D('',#1021,#822,#823);
#679=AXIS2_PLACEMENT_3D('',#1025,#826,#827);
#680=AXIS2_PLACEMENT_3D('',#1026,#828,#829);
#681=AXIS2_PLACEMENT_3D('',#1029,#831,#832);
#682=AXIS2_PLACEMENT_3D('',#1033,#835,#836);
#683=AXIS2_PLACEMENT_3D('',#1034,#837,#838);
#684=AXIS2_PLACEMENT_3D('',#1037,#840,#841);
#685=AXIS2_PLACEMENT_3D('',#1038,#842,#843);
#686=AXIS2_PLACEMENT_3D('',#1040,#844,#845);
#687=AXIS2_PLACEMENT_3D('',#1042,#846,#847);
#688=AXIS2_PLACEMENT_3D('',#1044,#849,#850);
#689=AXIS2_PLACEMENT_3D('',#1046,#852,#853);
#690=AXIS2_PLACEMENT_3D('',#1048,#855,#856);
#691=AXIS2_PLACEMENT_3D('',#1050,#858,#859);
#692=AXIS2_PLACEMENT_3D('',#1052,#861,#862);
#693=AXIS2_PLACEMENT_3D('',#1053,#863,#864);
#694=AXIS2_PLACEMENT_3D('',#1055,#865,#866);
#695=AXIS2_PLACEMENT_3D('',#1056,#867,#868);
#696=AXIS2_PLACEMENT_3D('',#1057,#869,#870);
#697=AXIS2_PLACEMENT_3D('',#1058,#871,#872);
#698=AXIS2_PLACEMENT_3D('',#1059,#873,#874);
#699=AXIS2_PLACEMENT_3D('',#1061,#875,#876);
#700=AXIS2_PLACEMENT_3D('',#1063,#877,#878);
#701=AXIS2_PLACEMENT_3D('',#1064,#879,#880);
#702=AXIS2_PLACEMENT_3D('',#1065,#881,#882);
#703=AXIS2_PLACEMENT_3D('',#1066,#883,#884);
#704=AXIS2_PLACEMENT_3D('',#1068,#885,#886);
#705=AXIS2_PLACEMENT_3D('',#1069,#887,#888);
#706=AXIS2_PLACEMENT_3D('',#1071,#889,#890);
#707=AXIS2_PLACEMENT_3D('',#1072,#891,#892);
#708=AXIS2_PLACEMENT_3D('',#1074,#893,#894);
#709=AXIS2_PLACEMENT_3D('',#1076,#895,#896);
#710=AXIS2_PLACEMENT_3D('',#1077,#897,#898);
#711=DIRECTION('',(0.,0.,1.));
#712=DIRECTION('',(1.,0.,0.));
#713=DIRECTION('',(0.,0.,1.));
#714=DIRECTION('',(1.,0.,0.));
#715=DIRECTION('',(0.,0.,1.));
#716=DIRECTION('',(1.,0.,0.));
#717=DIRECTION('',(0.866025403784439,-0.5,0.));
#718=DIRECTION('',(0.,0.,-1.));
#719=DIRECTION('',(1.,0.,0.));
#720=DIRECTION('',(0.866025403784439,-0.5,0.));
#721=DIRECTION('',(0.,0.,-1.));
#722=DIRECTION('',(1.,0.,0.));
#723=DIRECTION('',(0.,-1.,0.));
#724=DIRECTION('',(0.,0.,-1.));
#725=DIRECTION('',(1.,0.,0.));
#726=DIRECTION('',(0.,-1.,0.));
#727=DIRECTION('',(0.,0.,-1.));
#728=DIRECTION('',(1.,0.,0.));
#729=DIRECTION('',(-0.866025403784438,-0.5,0.));
#730=DIRECTION('',(0.,0.,-1.));
#731=DIRECTION('',(1.,0.,0.));
#732=DIRECTION('',(-0.866025403784438,-0.5,0.));
#733=DIRECTION('',(0.,0.,-1.));
#734=DIRECTION('',(1.,0.,0.));
#735=DIRECTION('',(-0.866025403784439,0.5,0.));
#736=DIRECTION('',(0.,0.,-1.));
#737=DIRECTION('',(1.,0.,0.));
#738=DIRECTION('',(-0.866025403784439,0.5,0.));
#739=DIRECTION('',(0.,0.,-1.));
#740=DIRECTION('',(1.,0.,0.));
#741=DIRECTION('',(0.,1.,0.));
#742=DIRECTION('',(0.,0.,-1.));
#743=DIRECTION('',(1.,0.,0.));
#744=DIRECTION('',(0.,1.,0.));
#745=DIRECTION('',(0.,0.,-1.));
#746=DIRECTION('',(1.,0.,0.));
#747=DIRECTION('',(0.866025403784439,0.5,0.));
#748=DIRECTION('',(0.,0.,-1.));
#749=DIRECTION('',(1.,0.,0.));
#750=DIRECTION('',(0.866025403784439,0.5,0.));
#751=DIRECTION('',(0.,0.,-1.));
#752=DIRECTION('',(1.,0.,0.));
#753=DIRECTION('',(0.,0.,-1.));
#754=DIRECTION('',(-1.,0.,0.));
#755=DIRECTION('',(0.,0.,1.));
#756=DIRECTION('',(1.,0.,0.));
#757=DIRECTION('',(0.,0.,1.));
#758=DIRECTION('',(1.,0.,0.));
#759=DIRECTION('',(-0.5,0.866025403784438,0.));
#760=DIRECTION('',(-0.866025403784439,-0.5,0.));
#761=DIRECTION('',(0.866025403784439,0.5,0.));
#762=DIRECTION('',(0.,0.,-1.));
#763=DIRECTION('',(0.,0.,-1.));
#764=DIRECTION('',(0.,0.,-1.));
#765=DIRECTION('',(-1.,0.,0.));
#766=DIRECTION('',(0.,0.,1.));
#767=DIRECTION('',(1.,0.,0.));
#768=DIRECTION('',(0.,0.,-1.));
#769=DIRECTION('',(0.,0.,-1.));
#770=DIRECTION('',(0.,0.,-1.));
#771=DIRECTION('',(1.,0.,0.));
#772=DIRECTION('',(0.,0.,-1.));
#773=DIRECTION('',(0.,0.,-1.));
#774=DIRECTION('',(0.,0.,-1.));
#775=DIRECTION('',(1.,0.,0.));
#776=DIRECTION('',(0.,0.,-1.));
#777=DIRECTION('',(0.,0.,-1.));
#778=DIRECTION('',(0.,0.,-1.));
#779=DIRECTION('',(1.,0.,0.));
#780=DIRECTION('',(0.,0.,-1.));
#781=DIRECTION('',(0.,0.,-1.));
#782=DIRECTION('',(0.,0.,-1.));
#783=DIRECTION('',(1.,0.,0.));
#784=DIRECTION('',(0.,0.,-1.));
#785=DIRECTION('',(0.,0.,-1.));
#786=DIRECTION('',(0.,0.,-1.));
#787=DIRECTION('',(1.,0.,0.));
#788=DIRECTION('',(0.,0.,-1.));
#789=DIRECTION('',(0.,0.,-1.));
#790=DIRECTION('',(1.,0.,0.));
#791=DIRECTION('',(-1.,0.,0.));
#792=DIRECTION('',(0.,0.,1.));
#793=DIRECTION('',(0.,1.,0.));
#794=DIRECTION('',(0.,0.,-1.));
#795=DIRECTION('',(0.5,-0.866025403784438,0.));
#796=DIRECTION('',(0.866025403784439,0.5,0.));
#797=DIRECTION('',(-0.866025403784438,-0.5,0.));
#798=DIRECTION('',(0.,0.,-1.));
#799=DIRECTION('',(0.,0.,-1.));
#800=DIRECTION('',(-1.,0.,0.));
#801=DIRECTION('',(0.,0.,-1.));
#802=DIRECTION('',(1.,0.,0.));
#803=DIRECTION('',(0.,0.,-1.));
#804=DIRECTION('',(1.,0.,0.));
#805=DIRECTION('',(0.,0.,-1.));
#806=DIRECTION('',(0.,-1.,0.));
#807=DIRECTION('',(0.,0.,-1.));
#808=DIRECTION('',(0.,0.,-1.));
#809=DIRECTION('',(-1.,0.,0.));
#810=DIRECTION('',(0.,0.,-1.));
#811=DIRECTION('',(1.,0.,0.));
#812=DIRECTION('',(0.,0.,-1.));
#813=DIRECTION('',(0.5,0.866025403784439,0.));
#814=DIRECTION('',(-0.866025403784439,0.5,0.));
#815=DIRECTION('',(0.866025403784439,-0.5,0.));
#816=DIRECTION('',(0.,0.,-1.));
#817=DIRECTION('',(0.,0.,-1.));
#818=DIRECTION('',(-1.,0.,0.));
#819=DIRECTION('',(0.,0.,-1.));
#820=DIRECTION('',(1.,0.,0.));
#821=DIRECTION('',(0.,0.,-1.));
#822=DIRECTION('',(-0.5,0.866025403784438,0.));
#823=DIRECTION('',(-0.866025403784439,-0.5,0.));
#824=DIRECTION('',(0.866025403784439,0.5,0.));
#825=DIRECTION('',(0.,0.,-1.));
#826=DIRECTION('',(0.,0.,-1.));
#827=DIRECTION('',(-1.,0.,0.));
#828=DIRECTION('',(0.,0.,-1.));
#829=DIRECTION('',(1.,0.,0.));
#830=DIRECTION('',(0.,0.,-1.));
#831=DIRECTION('',(-0.5,-0.866025403784439,0.));
#832=DIRECTION('',(0.866025403784439,-0.5,0.));
#833=DIRECTION('',(-0.866025403784439,0.5,0.));
#834=DIRECTION('',(0.,0.,-1.));
#835=DIRECTION('',(0.,0.,-1.));
#836=DIRECTION('',(-1.,0.,0.));
#837=DIRECTION('',(0.,0.,-1.));
#838=DIRECTION('',(1.,0.,0.));
#839=DIRECTION('',(0.,0.,-1.));
#840=DIRECTION('',(0.,0.,-1.));
#841=DIRECTION('',(-1.,0.,0.));
#842=DIRECTION('',(0.,0.,1.));
#843=DIRECTION('',(1.,0.,0.));
#844=DIRECTION('',(0.,0.,1.));
#845=DIRECTION('',(1.,0.,0.));
#846=DIRECTION('',(-0.5,-0.866025403784439,0.));
#847=DIRECTION('',(0.866025403784439,-0.5,0.));
#848=DIRECTION('',(-0.866025403784439,0.5,0.));
#849=DIRECTION('',(0.5,-0.866025403784438,0.));
#850=DIRECTION('',(0.866025403784438,0.5,0.));
#851=DIRECTION('',(-0.866025403784438,-0.5,0.));
#852=DIRECTION('',(1.,0.,0.));
#853=DIRECTION('',(0.,0.,-1.));
#854=DIRECTION('',(0.,-1.,0.));
#855=DIRECTION('',(0.5,0.866025403784439,0.));
#856=DIRECTION('',(-0.866025403784439,0.5,0.));
#857=DIRECTION('',(0.866025403784439,-0.5,0.));
#858=DIRECTION('',(-1.,0.,0.));
#859=DIRECTION('',(0.,0.,1.));
#860=DIRECTION('',(0.,1.,0.));
#861=DIRECTION('',(0.,0.,-1.));
#862=DIRECTION('',(-1.,0.,0.));
#863=DIRECTION('',(0.,0.,1.));
#864=DIRECTION('',(1.,0.,0.));
#865=DIRECTION('',(0.,0.,-1.));
#866=DIRECTION('',(-1.,0.,0.));
#867=DIRECTION('',(0.,0.,-1.));
#868=DIRECTION('',(1.,0.,0.));
#869=DIRECTION('',(0.,0.,1.));
#870=DIRECTION('',(1.,0.,0.));
#871=DIRECTION('',(0.,0.,-1.));
#872=DIRECTION('',(-1.,0.,0.));
#873=DIRECTION('',(0.,0.,1.));
#874=DIRECTION('',(1.,0.,0.));
#875=DIRECTION('',(0.,0.,1.));
#876=DIRECTION('',(1.,0.,0.));
#877=DIRECTION('',(0.,0.,1.));
#878=DIRECTION('',(1.,0.,0.));
#879=DIRECTION('',(0.,0.,1.));
#880=DIRECTION('',(1.,0.,0.));
#881=DIRECTION('',(0.,0.,1.));
#882=DIRECTION('',(1.,0.,0.));
#883=DIRECTION('',(0.,0.,1.));
#884=DIRECTION('',(1.,-6.12323399573677E-17,0.));
#885=DIRECTION('',(0.,0.,-1.));
#886=DIRECTION('',(-1.,0.,0.));
#887=DIRECTION('',(0.,0.,1.));
#888=DIRECTION('',(1.,-6.12323399573677E-17,0.));
#889=DIRECTION('',(0.,0.,-1.));
#890=DIRECTION('',(-1.,0.,0.));
#891=DIRECTION('',(0.,0.,1.));
#892=DIRECTION('',(1.,-6.12323399573677E-17,0.));
#893=DIRECTION('',(0.,0.,1.));
#894=DIRECTION('',(1.,-6.12323399573677E-17,0.));
#895=DIRECTION('',(0.,0.,1.));
#896=DIRECTION('',(1.,0.,0.));
#897=DIRECTION('',(0.,0.,1.));
#898=DIRECTION('',(1.,0.,0.));
#899=CARTESIAN_POINT('',(0.,0.,0.));
#900=CARTESIAN_POINT('',(0.,0.,0.006));
#901=CARTESIAN_POINT('',(0.,2.57175827820944E-18,0.006));
#902=CARTESIAN_POINT('',(0.042,2.57175827820944E-18,0.006));
#903=CARTESIAN_POINT('',(0.0187945287590408,-0.00870102623832432,0.006));
#904=CARTESIAN_POINT('',(0.00508930855489273,-0.000788313664156383,0.006));
#905=CARTESIAN_POINT('',(0.0324997489631888,-0.0166137388124922,0.006));
#906=CARTESIAN_POINT('',(1.09504419421036E-17,-1.77809156287623E-17,0.006));
#907=CARTESIAN_POINT('',(0.00322735393675619,-0.00401331366415639,0.006));
#908=CARTESIAN_POINT('',(0.0169325741409042,-0.0119260262383243,0.006));
#909=CARTESIAN_POINT('',(0.0306377943450522,-0.0198387388124922,0.006));
#910=CARTESIAN_POINT('',(3.57786716920216E-18,-3.46944695195361E-18,0.006));
#911=CARTESIAN_POINT('',(0.00186195461813655,-0.0364524776249845,0.006));
#912=CARTESIAN_POINT('',(0.00186195461813655,-0.0206270524766487,0.006));
#913=CARTESIAN_POINT('',(0.00186195461813654,-0.00480162732831277,0.006));
#914=CARTESIAN_POINT('',(1.09504419421036E-17,-1.77809156287623E-17,0.006));
#915=CARTESIAN_POINT('',(-0.00186195461813654,-0.00480162732831276,0.006));
#916=CARTESIAN_POINT('',(-0.00186195461813655,-0.0206270524766487,0.006));
#917=CARTESIAN_POINT('',(-0.00186195461813654,-0.0364524776249845,0.006));
#918=CARTESIAN_POINT('',(9.43255890062389E-18,0.,0.006));
#919=CARTESIAN_POINT('',(-0.0306377943450522,-0.0198387388124923,0.006));
#920=CARTESIAN_POINT('',(-0.0169325741409042,-0.0119260262383243,0.006));
#921=CARTESIAN_POINT('',(-0.00322735393675618,-0.00401331366415637,0.006));
#922=CARTESIAN_POINT('',(1.09504419421036E-17,-1.77809156287623E-17,0.006));
#923=CARTESIAN_POINT('',(-0.0050893085548927,-0.000788313664156381,0.006));
#924=CARTESIAN_POINT('',(-0.0187945287590408,-0.00870102623832435,0.006));
#925=CARTESIAN_POINT('',(-0.0324997489631888,-0.0166137388124923,0.006));
#926=CARTESIAN_POINT('',(-2.42861286636753E-17,6.93889390390723E-18,0.006));
#927=CARTESIAN_POINT('',(-0.0324997489631888,0.0166137388124922,0.006));
#928=CARTESIAN_POINT('',(-0.0187945287590408,0.00870102623832432,0.006));
#929=CARTESIAN_POINT('',(-0.0050893085548927,0.000788313664156374,0.006));
#930=CARTESIAN_POINT('',(1.09504419421036E-17,-1.77809156287623E-17,0.006));
#931=CARTESIAN_POINT('',(-0.00322735393675616,0.00401331366415635,0.006));
#932=CARTESIAN_POINT('',(-0.0169325741409042,0.0119260262383243,0.006));
#933=CARTESIAN_POINT('',(-0.0306377943450522,0.0198387388124922,0.006));
#934=CARTESIAN_POINT('',(-9.21571846612679E-18,1.04083408558608E-17,0.006));
#935=CARTESIAN_POINT('',(-0.00186195461813654,0.0364524776249845,0.006));
#936=CARTESIAN_POINT('',(-0.00186195461813655,0.0206270524766487,0.006));
#937=CARTESIAN_POINT('',(-0.00186195461813653,0.00480162732831273,0.006));
#938=CARTESIAN_POINT('',(1.09504419421036E-17,-1.77809156287623E-17,0.006));
#939=CARTESIAN_POINT('',(0.00186195461813653,0.00480162732831274,0.006));
#940=CARTESIAN_POINT('',(0.00186195461813655,0.0206270524766487,0.006));
#941=CARTESIAN_POINT('',(0.00186195461813655,0.0364524776249845,0.006));
#942=CARTESIAN_POINT('',(-5.42101086242752E-19,0.,0.006));
#943=CARTESIAN_POINT('',(0.0306377943450522,0.0198387388124923,0.006));
#944=CARTESIAN_POINT('',(0.0169325741409042,0.0119260262383243,0.006));
#945=CARTESIAN_POINT('',(0.00322735393675617,0.00401331366415636,0.006));
#946=CARTESIAN_POINT('',(1.09504419421036E-17,-1.77809156287623E-17,0.006));
#947=CARTESIAN_POINT('',(0.00508930855489272,0.000788313664156383,0.006));
#948=CARTESIAN_POINT('',(0.0187945287590408,0.00870102623832434,0.006));
#949=CARTESIAN_POINT('',(0.0324997489631888,0.0166137388124923,0.006));
#950=CARTESIAN_POINT('',(3.46944695195361E-18,-1.04083408558608E-17,0.006));
#951=CARTESIAN_POINT('',(0.,2.57175827820944E-18,0.006));
#952=CARTESIAN_POINT('',(0.,2.57175827820944E-18,0.));
#953=CARTESIAN_POINT('',(0.042,2.57175827820944E-18,0.));
#954=CARTESIAN_POINT('',(0.,2.57175827820944E-18,0.001));
#955=CARTESIAN_POINT('',(0.042,2.57175827820944E-18,0.001));
#956=CARTESIAN_POINT('',(0.0169325741409042,0.0119260262383243,0.006));
#957=CARTESIAN_POINT('',(0.0169325741409042,0.0119260262383243,0.));
#958=CARTESIAN_POINT('',(0.00322735393675619,0.00401331366415639,0.));
#959=CARTESIAN_POINT('',(0.0306377943450522,0.0198387388124923,0.));
#960=CARTESIAN_POINT('',(0.00322735393675619,0.00401331366415639,0.006));
#961=CARTESIAN_POINT('',(0.0306377943450522,0.0198387388124923,0.006));
#962=CARTESIAN_POINT('',(-8.78203759713259E-18,-1.12757025938492E-17,0.006));
#963=CARTESIAN_POINT('',(-8.78203759713259E-18,-1.12757025938492E-17,0.));
#964=CARTESIAN_POINT('',(0.00186195461813655,0.00480162732831277,0.));
#965=CARTESIAN_POINT('',(0.00186195461813655,0.00480162732831277,0.006));
#966=CARTESIAN_POINT('',(-0.00186195461813655,0.00480162732831277,0.006));
#967=CARTESIAN_POINT('',(-0.00186195461813655,0.00480162732831277,0.));
#968=CARTESIAN_POINT('',(1.40946282423116E-18,-1.25767452008318E-17,0.));
#969=CARTESIAN_POINT('',(-0.00322735393675619,0.00401331366415638,0.));
#970=CARTESIAN_POINT('',(-0.00322735393675619,0.00401331366415638,0.006));
#971=CARTESIAN_POINT('',(-0.00508930855489273,0.00078831366415638,0.006));
#972=CARTESIAN_POINT('',(-0.00508930855489273,0.00078831366415638,0.));
#973=CARTESIAN_POINT('',(5.29090660172926E-17,-2.76471553983803E-18,0.));
#974=CARTESIAN_POINT('',(-0.00508930855489273,-0.000788313664156385,0.));
#975=CARTESIAN_POINT('',(-0.00508930855489273,-0.000788313664156385,0.006));
#976=CARTESIAN_POINT('',(-0.00322735393675618,-0.00401331366415639,0.006));
#977=CARTESIAN_POINT('',(-0.00322735393675618,-0.00401331366415639,0.));
#978=CARTESIAN_POINT('',(-2.60208521396521E-18,-5.20417042793042E-18,0.));
#979=CARTESIAN_POINT('',(-0.00186195461813655,-0.00480162732831277,0.));
#980=CARTESIAN_POINT('',(-0.00186195461813655,-0.00480162732831277,0.006));
#981=CARTESIAN_POINT('',(0.00186195461813655,-0.00480162732831277,0.006));
#982=CARTESIAN_POINT('',(0.00186195461813655,-0.00480162732831277,0.));
#983=CARTESIAN_POINT('',(1.09504419421036E-17,-1.77809156287623E-17,0.));
#984=CARTESIAN_POINT('',(0.00322735393675619,-0.00401331366415639,0.));
#985=CARTESIAN_POINT('',(0.00322735393675619,-0.00401331366415639,0.006));
#986=CARTESIAN_POINT('',(0.00508930855489273,-0.000788313664156383,0.006));
#987=CARTESIAN_POINT('',(0.00508930855489273,-0.000788313664156383,0.));
#988=CARTESIAN_POINT('',(-5.50774703622636E-17,-3.25260651745651E-18,0.));
#989=CARTESIAN_POINT('',(0.00508930855489273,0.000788313664156385,0.));
#990=CARTESIAN_POINT('',(0.00508930855489273,0.000788313664156385,0.006));
#991=CARTESIAN_POINT('',(1.09504419421036E-17,-1.77809156287623E-17,0.007));
#992=CARTESIAN_POINT('',(0.00515000000000001,-1.77809156287623E-17,0.007));
#993=CARTESIAN_POINT('',(0.00186195461813655,0.0206270524766487,0.006));
#994=CARTESIAN_POINT('',(0.00186195461813655,0.0206270524766487,0.));
#995=CARTESIAN_POINT('',(0.00186195461813655,0.0364524776249845,0.));
#996=CARTESIAN_POINT('',(0.00186195461813655,0.0364524776249845,0.006));
#997=CARTESIAN_POINT('',(-0.0187945287590408,-0.00870102623832435,0.006));
#998=CARTESIAN_POINT('',(-0.0187945287590408,-0.00870102623832435,0.));
#999=CARTESIAN_POINT('',(-0.0324997489631888,-0.0166137388124923,0.));
#1000=CARTESIAN_POINT('',(-0.0324997489631888,-0.0166137388124923,0.006));
#1001=CARTESIAN_POINT('',(-2.42861286636753E-17,6.93889390390723E-18,0.006));
#1002=CARTESIAN_POINT('',(-2.42861286636753E-17,6.93889390390723E-18,0.));
#1003=CARTESIAN_POINT('',(-0.0324997489631888,0.0166137388124922,0.));
#1004=CARTESIAN_POINT('',(-0.0324997489631888,0.0166137388124922,0.006));
#1005=CARTESIAN_POINT('',(-0.00186195461813655,-0.0206270524766487,0.006));
#1006=CARTESIAN_POINT('',(-0.00186195461813655,-0.0206270524766487,0.));
#1007=CARTESIAN_POINT('',(-0.00186195461813654,-0.0364524776249845,0.));
#1008=CARTESIAN_POINT('',(-0.00186195461813654,-0.0364524776249845,0.006));
#1009=CARTESIAN_POINT('',(9.43255890062389E-18,0.,0.006));
#1010=CARTESIAN_POINT('',(9.43255890062389E-18,0.,0.));
#1011=CARTESIAN_POINT('',(-0.0306377943450522,-0.0198387388124923,0.));
#1012=CARTESIAN_POINT('',(-0.0306377943450522,-0.0198387388124923,0.006));
#1013=CARTESIAN_POINT('',(0.0169325741409042,-0.0119260262383243,0.006));
#1014=CARTESIAN_POINT('',(0.0169325741409042,-0.0119260262383243,0.));
#1015=CARTESIAN_POINT('',(0.0306377943450522,-0.0198387388124922,0.));
#1016=CARTESIAN_POINT('',(0.0306377943450522,-0.0198387388124922,0.006));
#1017=CARTESIAN_POINT('',(3.57786716920216E-18,-3.46944695195361E-18,0.006));
#1018=CARTESIAN_POINT('',(3.57786716920216E-18,-3.46944695195361E-18,0.));
#1019=CARTESIAN_POINT('',(0.00186195461813655,-0.0364524776249845,0.));
#1020=CARTESIAN_POINT('',(0.00186195461813655,-0.0364524776249845,0.006));
#1021=CARTESIAN_POINT('',(0.0187945287590408,0.00870102623832434,0.006));
#1022=CARTESIAN_POINT('',(0.0187945287590408,0.00870102623832434,0.));
#1023=CARTESIAN_POINT('',(0.0324997489631888,0.0166137388124923,0.));
#1024=CARTESIAN_POINT('',(0.0324997489631888,0.0166137388124923,0.006));
#1025=CARTESIAN_POINT('',(3.46944695195361E-18,-1.04083408558608E-17,0.006));
#1026=CARTESIAN_POINT('',(3.46944695195361E-18,-1.04083408558608E-17,0.));
#1027=CARTESIAN_POINT('',(0.0324997489631888,-0.0166137388124922,0.));
#1028=CARTESIAN_POINT('',(0.0324997489631888,-0.0166137388124922,0.006));
#1029=CARTESIAN_POINT('',(-0.0169325741409042,0.0119260262383243,0.006));
#1030=CARTESIAN_POINT('',(-0.0169325741409042,0.0119260262383243,0.));
#1031=CARTESIAN_POINT('',(-0.0306377943450522,0.0198387388124922,0.));
#1032=CARTESIAN_POINT('',(-0.0306377943450522,0.0198387388124922,0.006));
#1033=CARTESIAN_POINT('',(-9.21571846612679E-18,1.04083408558608E-17,0.006));
#1034=CARTESIAN_POINT('',(-9.21571846612679E-18,1.04083408558608E-17,0.));
#1035=CARTESIAN_POINT('',(-0.00186195461813654,0.0364524776249845,0.));
#1036=CARTESIAN_POINT('',(-0.00186195461813654,0.0364524776249845,0.006));
#1037=CARTESIAN_POINT('',(0.,1.3164953090834E-19,0.006));
#1038=CARTESIAN_POINT('',(0.,1.3164953090834E-19,0.));
#1039=CARTESIAN_POINT('',(0.00215,1.3164953090834E-19,0.));
#1040=CARTESIAN_POINT('',(0.,1.3164953090834E-19,0.012));
#1041=CARTESIAN_POINT('',(0.00215,1.3164953090834E-19,0.012));
#1042=CARTESIAN_POINT('',(-0.0187945287590408,0.00870102623832432,0.006));
#1043=CARTESIAN_POINT('',(-0.0187945287590408,0.00870102623832432,0.));
#1044=CARTESIAN_POINT('',(-0.0169325741409042,-0.0119260262383243,0.006));
#1045=CARTESIAN_POINT('',(-0.0169325741409042,-0.0119260262383243,0.));
#1046=CARTESIAN_POINT('',(0.00186195461813655,-0.0206270524766487,0.006));
#1047=CARTESIAN_POINT('',(0.00186195461813655,-0.0206270524766487,0.));
#1048=CARTESIAN_POINT('',(0.0187945287590408,-0.00870102623832432,0.006));
#1049=CARTESIAN_POINT('',(0.0187945287590408,-0.00870102623832432,0.));
#1050=CARTESIAN_POINT('',(-0.00186195461813655,0.0206270524766487,0.006));
#1051=CARTESIAN_POINT('',(-0.00186195461813655,0.0206270524766487,0.));
#1052=CARTESIAN_POINT('',(0.,2.57175827820944E-18,0.006));
#1053=CARTESIAN_POINT('',(0.,2.57175827820944E-18,0.005));
#1054=CARTESIAN_POINT('',(0.042,2.57175827820944E-18,0.005));
#1055=CARTESIAN_POINT('',(-5.42101086242752E-19,0.,0.006));
#1056=CARTESIAN_POINT('',(-5.42101086242752E-19,0.,0.));
#1057=CARTESIAN_POINT('',(0.,0.,0.));
#1058=CARTESIAN_POINT('',(0.,2.4492935982947E-18,0.005));
#1059=CARTESIAN_POINT('',(0.,2.4492935982947E-18,0.005));
#1060=CARTESIAN_POINT('',(0.04,2.4492935982947E-18,0.005));
#1061=CARTESIAN_POINT('',(0.,2.4492935982947E-18,0.001));
#1062=CARTESIAN_POINT('',(0.04,2.4492935982947E-18,0.001));
#1063=CARTESIAN_POINT('',(0.,0.,0.005));
#1064=CARTESIAN_POINT('',(0.,0.,0.001));
#1065=CARTESIAN_POINT('',(0.,0.,0.007));
#1066=CARTESIAN_POINT('',(0.,3.85763741731417E-19,0.007));
#1067=CARTESIAN_POINT('',(0.00415,1.31649530908341E-19,0.007));
#1068=CARTESIAN_POINT('',(0.,3.85763741731417E-19,0.011));
#1069=CARTESIAN_POINT('',(0.,3.85763741731417E-19,0.011));
#1070=CARTESIAN_POINT('',(0.00415,1.31649530908341E-19,0.011));
#1071=CARTESIAN_POINT('',(-8.67361737988404E-18,-1.09603560430688E-17,0.012));
#1072=CARTESIAN_POINT('',(-8.67361737988404E-18,-1.09603560430688E-17,0.012));
#1073=CARTESIAN_POINT('',(0.00514999999999999,-1.12757025938492E-17,0.012));
#1074=CARTESIAN_POINT('',(-8.67361737988404E-18,-1.09603560430688E-17,0.011));
#1075=CARTESIAN_POINT('',(0.00514999999999999,-1.12757025938492E-17,0.011));
#1076=CARTESIAN_POINT('',(-8.67361737988404E-18,-1.04083408558608E-17,0.012));
#1077=CARTESIAN_POINT('',(-8.67361737988404E-18,-1.04083408558608E-17,0.011));
#1078=MECHANICAL_DESIGN_GEOMETRIC_PRESENTATION_REPRESENTATION('',(#630),
#1079);
#1079=(
GEOMETRIC_REPRESENTATION_CONTEXT(3)
GLOBAL_UNCERTAINTY_ASSIGNED_CONTEXT((#1080))
GLOBAL_UNIT_ASSIGNED_CONTEXT((#1083,#1082,#1081))
REPRESENTATION_CONTEXT('Part 1','TOP_LEVEL_ASSEMBLY_PART')
);
#1080=UNCERTAINTY_MEASURE_WITH_UNIT(LENGTH_MEASURE(1.E-8),#1083,
'DISTANCE_ACCURACY_VALUE','Maximum Tolerance applied to model');
#1081=(
NAMED_UNIT(*)
SI_UNIT($,.STERADIAN.)
SOLID_ANGLE_UNIT()
);
#1082=(
NAMED_UNIT(*)
PLANE_ANGLE_UNIT()
SI_UNIT($,.RADIAN.)
);
#1083=(
LENGTH_UNIT()
NAMED_UNIT(*)
SI_UNIT($,.METRE.)
);
#1084=PRODUCT_DEFINITION_SHAPE('','',#1085);
#1085=PRODUCT_DEFINITION('','',#1087,#1086);
#1086=PRODUCT_DEFINITION_CONTEXT('',#1093,'design');
#1087=PRODUCT_DEFINITION_FORMATION_WITH_SPECIFIED_SOURCE('','',#1089,
 .NOT_KNOWN.);
#1088=PRODUCT_RELATED_PRODUCT_CATEGORY('','',(#1089));
#1089=PRODUCT('Part 1','Part 1','Part 1',(#1091));
#1090=PRODUCT_CATEGORY('','');
#1091=PRODUCT_CONTEXT('',#1093,'mechanical');
#1092=APPLICATION_PROTOCOL_DEFINITION('international standard',
'ap242_managed_model_based_3d_engineering',2020,#1093);
#1093=APPLICATION_CONTEXT('managed model based 3d engineering');
ENDSEC;
END-ISO-10303-21;
